SplineFontDB: 3.2
FontName: Fallout-Classic-Dialog-Bold
FullName: Fallout Classic Dialog
FamilyName: Fallout-Classic
Weight: Bold
Copyright: Copyright (c) <2022> <Vitalis Sandor Ung (Slowhand at fodev.net, github.com/Sasabmeg)> \n\n(MIT license)\n\nPermission is hereby granted, free of charge, to any person obtaining a copy\nof this software and associated documentation files (the "Software"), to deal\nin the Software without restriction, including without limitation the rights\nto use, copy, modify, merge, publish, distribute, sublicense, and/or sell\ncopies of the Software, and to permit persons to whom the Software is\nfurnished to do so, subject to the following conditions:\n\nThe above copyright notice and this permission notice shall be included in all\ncopies or substantial portions of the Software.\n\nTHE SOFTWARE IS PROVIDED "AS IS", WITHOUT WARRANTY OF ANY KIND, EXPRESS OR\nIMPLIED, INCLUDING BUT NOT LIMITED TO THE WARRANTIES OF MERCHANTABILITY,\nFITNESS FOR A PARTICULAR PURPOSE AND NONINFRINGEMENT. IN NO EVENT SHALL THE\nAUTHORS OR COPYRIGHT HOLDERS BE LIABLE FOR ANY CLAIM, DAMAGES OR OTHER\nLIABILITY, WHETHER IN AN ACTION OF CONTRACT, TORT OR OTHERWISE, ARISING FROM,\nOUT OF OR IN CONNECTION WITH THE SOFTWARE OR THE USE OR OTHER DEALINGS IN THE\nSOFTWARE.
UComments: "2022-12-17: Created with FontForge (http://fontforge.org)"
Version: 1.00
ItalicAngle: 0
UnderlinePosition: -101
UnderlineWidth: 50
Ascent: 819
Descent: 205
InvalidEm: 0
sfntRevision: 0x00010000
LayerCount: 2
Layer: 0 1 "Back" 1
Layer: 1 1 "Fore" 0
XUID: [1021 448 459894302 26878]
FSType: 0
OS2Version: 0
OS2_WeightWidthSlopeOnly: 0
OS2_UseTypoMetrics: 1
CreationTime: 1671241044
ModificationTime: 1673811600
PfmFamily: 17
TTFWeight: 400
TTFWidth: 5
LineGap: 188
VLineGap: 0
OS2TypoAscent: 0
OS2TypoAOffset: 1
OS2TypoDescent: 0
OS2TypoDOffset: 1
OS2TypoLinegap: 188
OS2WinAscent: 0
OS2WinAOffset: 1
OS2WinDescent: 0
OS2WinDOffset: 1
HheadAscent: 0
HheadAOffset: 1
HheadDescent: 0
HheadDOffset: 1

StartChar: c
Encoding: 99 99 0
Width: 612
Flags: W
LayerCount: 2
Fore
SplineSet
256 511.799804688 m 2,0,-1
 512 511.799804688 l 1,1,-1
 512 409.400390625 l 1,2,-1
 256 409.400390625 l 1,3,-1
 204.799804688 359 l 1,4,-1
 204.799804688 153.400390625 l 1,5,-1
 256 102.200195312 l 1,6,-1
 512 102.200195312 l 1,7,-1
 512 -0.2001953125 l 1,8,-1
 256 -0.2001953125 l 2,9,10
 201.035422948 0.157304529648 201.035422948 0.157304529648 154.980234425 17.9663135909 c 128,-1,11
 108.925045902 35.7753226522 108.925045902 35.7753226522 79.1569183527 65.5912915402 c 128,-1,12
 49.388790803 95.4072604283 49.388790803 95.4072604283 28.5532877301 133.942801074 c 128,-1,13
 7.71778465731 172.478341719 7.71778465731 172.478341719 3.19729901112 214.94777838 c 128,-1,14
 -1.32318663507 257.417215041 -1.32318663507 257.417215041 3.11187344258 299.830361088 c 128,-1,15
 7.54693352023 342.243507134 7.54693352023 342.243507134 28.3249674782 380.517485385 c 128,-1,16
 49.1030014362 418.791463635 49.1030014362 418.791463635 78.8595023649 448.2332889 c 128,-1,17
 108.616003294 477.675114164 108.616003294 477.675114164 154.743434556 494.904707821 c 128,-1,18
 200.870865819 512.134301478 200.870865819 512.134301478 256 511.799804688 c 2,0,-1
EndSplineSet
EndChar

StartChar: A
Encoding: 65 65 1
Width: 920
Flags: W
LayerCount: 2
Fore
SplineSet
614.400390625 307 m 1,0,-1
 614.400390625 511.799804688 l 1,1,-1
 409.599609375 307 l 1,2,-1
 614.400390625 307 l 1,0,-1
819.200195312 716.599609375 m 1,3,-1
 819.200195312 -0.2001953125 l 1,4,-1
 614.400390625 -0.2001953125 l 1,5,-1
 614.400390625 204.599609375 l 1,6,-1
 307.200195312 204.599609375 l 1,7,-1
 102.400390625 -0.2001953125 l 1,8,-1
 0 -0.2001953125 l 1,9,-1
 0 102.200195312 l 1,10,-1
 614.400390625 716.599609375 l 1,11,-1
 819.200195312 716.599609375 l 1,3,-1
EndSplineSet
EndChar

StartChar: p
Encoding: 112 112 2
Width: 712
Flags: W
LayerCount: 2
Fore
SplineSet
358.400390625 102.200195312 m 1,0,-1
 409.599609375 153.400390625 l 1,1,-1
 409.599609375 359 l 1,2,-1
 358.400390625 409.400390625 l 1,3,-1
 204.799804688 409.400390625 l 1,4,-1
 204.799804688 102.200195312 l 1,5,-1
 358.400390625 102.200195312 l 1,0,-1
0 511.799804688 m 1,6,-1
 358.400390625 511.799804688 l 2,7,8
 413.254646596 511.539460932 413.254646596 511.539460932 459.258257093 493.84421195 c 128,-1,9
 505.261867589 476.148962967 505.261867589 476.148962967 535.039485963 446.433180026 c 128,-1,10
 564.817104337 416.717397085 564.817104337 416.717397085 585.689327052 378.275935629 c 128,-1,11
 606.561549766 339.834474174 606.561549766 339.834474174 611.141900443 297.419776069 c 128,-1,12
 615.72225112 255.005077964 615.72225112 255.005077964 611.343197936 212.618056686 c 128,-1,13
 606.964144752 170.231035407 606.964144752 170.231035407 586.227339615 131.918074787 c 128,-1,14
 565.490534478 93.6051141679 565.490534478 93.6051141679 535.740317278 64.073185715 c 128,-1,15
 505.990100078 34.5412572621 505.990100078 34.5412572621 459.816251009 17.1306867773 c 128,-1,16
 413.642401941 -0.279883707599 413.642401941 -0.279883707599 358.400390625 -0.2001953125 c 2,17,-1
 207.793945312 -0.2001953125 l 1,18,-1
 204.799804688 -205 l 1,19,-1
 0 -205 l 1,20,-1
 0 511.799804688 l 1,6,-1
EndSplineSet
EndChar

StartChar: a
Encoding: 97 97 3
Width: 715
Flags: W
LayerCount: 2
Fore
SplineSet
256 102.200195312 m 1,0,-1
 409.599609375 102.200195312 l 1,1,-1
 409.599609375 409.400390625 l 1,2,-1
 256 409.400390625 l 1,3,-1
 204.799804688 359 l 1,4,-1
 204.799804688 153.400390625 l 1,5,-1
 256 102.200195312 l 1,0,-1
614.400390625 511.799804688 m 1,6,-1
 614.400390625 -0.2001953125 l 1,7,-1
 263.200195312 -0.2001953125 l 2,8,9
 206.720759097 -0.242874788873 206.720759097 -0.242874788873 159.383980221 17.2357611696 c 128,-1,10
 112.047201346 34.714397128 112.047201346 34.714397128 81.4408172325 64.3209035681 c 128,-1,11
 50.8344331193 93.9274100081 50.8344331193 93.9274100081 29.4028845422 132.320000067 c 128,-1,12
 7.9713359652 170.712590126 7.9713359652 170.712590126 3.30889690067 213.156259685 c 128,-1,13
 -1.35354216386 255.599929244 -1.35354216386 255.599929244 3.19059673359 298.050554551 c 128,-1,14
 7.73473563104 340.501179857 7.73473563104 340.501179857 29.0866987911 378.926093683 c 128,-1,15
 50.4386619512 417.351007509 50.4386619512 417.351007509 81.028945499 447.00374921 c 128,-1,16
 111.619229047 476.656490911 111.619229047 476.656490911 159.056051607 494.20673015 c 128,-1,17
 206.492874168 511.756969389 206.492874168 511.756969389 263.200195312 511.799804688 c 2,18,-1
 614.400390625 511.799804688 l 1,6,-1
EndSplineSet
EndChar

StartChar: B
Encoding: 66 66 4
Width: 817
Flags: W
LayerCount: 2
Fore
SplineSet
460.799804688 102.200195312 m 1,0,-1
 512 153.400390625 l 1,1,-1
 512 255.799804688 l 1,2,-1
 460.799804688 307 l 1,3,-1
 204.799804688 307 l 1,4,-1
 204.799804688 102.200195312 l 1,5,-1
 460.799804688 102.200195312 l 1,0,-1
460.799804688 409.400390625 m 1,6,-1
 512 460.599609375 l 1,7,-1
 512 563 l 1,8,-1
 460.799804688 614.200195312 l 1,9,-1
 204.799804688 614.200195312 l 1,10,-1
 204.799804688 409.400390625 l 1,11,-1
 460.799804688 409.400390625 l 1,6,-1
0 716.599609375 m 1,12,-1
 153.599609375 716.599609375 l 1,13,-1
 563.200195312 716.599609375 l 2,14,15
 612.063162316 716.829817345 612.063162316 716.829817345 648.530306817 686.641294271 c 128,-1,16
 684.997451318 656.452771197 684.997451318 656.452771197 700.076052558 610.480572917 c 128,-1,17
 715.154653798 564.508374636 715.154653798 564.508374636 716.663791192 515.084231771 c 128,-1,18
 718.172928585 465.660088905 718.172928585 465.660088905 699.518911933 422.303276042 c 128,-1,19
 680.864895281 378.946463178 680.864895281 378.946463178 647.467773438 359.104492188 c 1,20,21
 674.840601865 342.895264511 674.840601865 342.895264511 692.324379844 309.423596315 c 128,-1,22
 709.808157822 275.95192812 709.808157822 275.95192812 714.937013385 236.455716836 c 128,-1,23
 720.065868949 196.959505552 720.065868949 196.959505552 712.402106985 154.876431963 c 128,-1,24
 704.738345021 112.793358375 704.738345021 112.793358375 686.009098166 78.6477017895 c 128,-1,25
 667.27985131 44.5020452036 667.27985131 44.5020452036 632.574886209 22.4926790699 c 128,-1,26
 597.869921109 0.483312936276 597.869921109 0.483312936276 553.109375 0.4208984375 c 2,27,-1
 0 -0.2001953125 l 1,28,-1
 0 716.599609375 l 1,12,-1
EndSplineSet
EndChar

StartChar: b
Encoding: 98 98 5
Width: 712
Flags: W
LayerCount: 2
Fore
SplineSet
358.400390625 102.200195312 m 1,0,-1
 409.599609375 153.400390625 l 1,1,-1
 409.599609375 359 l 1,2,-1
 358.400390625 409.400390625 l 1,3,-1
 204.799804688 409.400390625 l 1,4,-1
 204.799804688 102.200195312 l 1,5,-1
 358.400390625 102.200195312 l 1,0,-1
0 716.599609375 m 1,6,-1
 204.799804688 716.599609375 l 1,7,-1
 204.799804688 511.799804688 l 1,8,-1
 358.400390625 511.799804688 l 2,9,10
 413.259375563 511.265096769 413.259375563 511.265096769 459.265320659 493.345368819 c 128,-1,11
 505.271265756 475.425640869 505.271265756 475.425640869 535.050072859 445.569175934 c 128,-1,12
 564.828879962 415.712710999 564.828879962 415.712710999 585.700602295 377.176791894 c 128,-1,13
 606.572324628 338.64087279 606.572324628 338.64087279 611.151876486 296.211378973 c 128,-1,14
 615.731428343 253.781885157 615.731428343 253.781885157 611.350583005 211.422663272 c 128,-1,15
 606.969737667 169.063441387 606.969737667 169.063441387 586.231689371 130.853807064 c 128,-1,16
 565.493641076 92.6441727409 565.493641076 92.6441727409 535.741883159 63.2545364502 c 128,-1,17
 505.990125243 33.8649001596 505.990125243 33.8649001596 459.816131887 16.6680137041 c 128,-1,18
 413.642138531 -0.528872751375 413.642138531 -0.528872751375 358.400390625 -0.2001953125 c 2,19,-1
 0 -0.2001953125 l 1,20,-1
 0 716.599609375 l 1,6,-1
EndSplineSet
EndChar

StartChar: C
Encoding: 67 67 6
Width: 715
Flags: W
LayerCount: 2
Fore
SplineSet
614.400390625 -0.2001953125 m 1,0,-1
 204.799804688 -0.2001953125 l 1,1,2
 137.935335968 12.7531164361 137.935335968 12.7531164361 89.9806504748 68.1821957925 c 128,-1,3
 42.0259649815 123.611275149 42.0259649815 123.611275149 20.9419976372 198.571669767 c 128,-1,4
 -0.141969707096 273.532064386 -0.141969707096 273.532064386 0.552400691792 359.758684146 c 128,-1,5
 1.24677109068 445.985303906 1.24677109068 445.985303906 23.4877875678 520.621329779 c 128,-1,6
 45.7288040448 595.257355652 45.7288040448 595.257355652 93.162887888 649.944221979 c 128,-1,7
 140.596971731 704.631088306 140.596971731 704.631088306 204.799804688 716.599609375 c 1,8,-1
 614.400390625 716.599609375 l 1,9,-1
 614.400390625 614.200195312 l 1,10,-1
 256 614.200195312 l 1,11,-1
 204.799804688 563 l 1,12,-1
 204.799804688 153.400390625 l 1,13,-1
 256 102.200195312 l 1,14,-1
 614.400390625 102.200195312 l 1,15,-1
 614.400390625 -0.2001953125 l 1,0,-1
EndSplineSet
EndChar

StartChar: D
Encoding: 68 68 7
Width: 812
Flags: W
LayerCount: 2
Fore
SplineSet
204.799804688 102.200195312 m 1,0,-1
 460.799804688 102.200195312 l 1,1,-1
 512 153.400390625 l 1,2,-1
 512 563 l 1,3,-1
 460.799804688 614.200195312 l 1,4,-1
 204.799804688 614.200195312 l 1,5,-1
 204.799804688 102.200195312 l 1,0,-1
0 716.599609375 m 1,6,-1
 409.599609375 716.599609375 l 2,7,8
 490.95325725 716.599609375 490.95325725 716.599609375 556.270811774 677.122336167 c 128,-1,9
 621.588366298 637.645062958 621.588366298 637.645062958 656.536056621 574.500087189 c 128,-1,10
 691.483746943 511.355111419 691.483746943 511.355111419 709.0028863 434.977691032 c 128,-1,11
 726.522025658 358.600270645 726.522025658 358.600270645 712.006042271 282.18224599 c 128,-1,12
 697.490058884 205.764221335 697.490058884 205.764221335 664.171253647 142.533096006 c 128,-1,13
 630.85244841 79.3019706776 630.85244841 79.3019706776 563.833261887 39.6573393754 c 128,-1,14
 496.814075363 0.0127080732035 496.814075363 0.0127080732035 409.599609375 -0.2001953125 c 2,15,-1
 0 -1.2001953125 l 1,16,-1
 0 716.599609375 l 1,6,-1
EndSplineSet
EndChar

StartChar: s
Encoding: 115 115 8
Width: 712
Flags: W
LayerCount: 2
Fore
SplineSet
153.599609375 511.799804688 m 2,0,-1
 563.200195312 511.799804688 l 1,1,-1
 563.182617188 409.399414062 l 1,2,-1
 232.708984375 409.400390625 l 1,3,-1
 205 376.096679688 l 1,4,-1
 205 332.349609375 l 1,5,-1
 232.373046875 307.000976562 l 1,6,-1
 460.799804688 307 l 2,7,8
 502.943982183 307 502.943982183 307 536.032386001 290.057715176 c 128,-1,9
 569.12078982 273.115430352 569.12078982 273.115430352 586.18744021 246.022701756 c 128,-1,10
 603.254090601 218.929973161 603.254090601 218.929973161 611.264967315 186.164937752 c 128,-1,11
 619.275844029 153.399902344 619.275844029 153.399902344 611.264967315 120.634866935 c 128,-1,12
 603.254090601 87.8698315264 603.254090601 87.8698315264 586.18744021 60.777102931 c 128,-1,13
 569.12078982 33.6843743357 569.12078982 33.6843743357 536.032386001 16.7420895116 c 128,-1,14
 502.943982183 -0.2001953125 502.943982183 -0.2001953125 460.799804688 -0.2001953125 c 2,15,-1
 0 -0.2001953125 l 1,16,-1
 -0.017578125 102.19921875 l 1,17,-1
 384 102.200195312 l 1,18,-1
 409.250976562 129.735351562 l 1,19,-1
 409.268554688 175.942382812 l 1,20,-1
 381.188476562 204.599609375 l 1,21,-1
 153.599609375 204.599609375 l 2,22,23
 106.5 204.599609375 106.5 204.599609375 72.3192100694 227.355179398 c 128,-1,24
 38.1384201389 250.110749421 38.1384201389 250.110749421 23.1866493056 284.244104456 c 128,-1,25
 8.23487847222 318.377459491 8.23487847222 318.377459491 8.65048177083 358.199707031 c 128,-1,26
 9.06608506944 398.021954572 9.06608506944 398.021954572 24.6979340278 432.155309606 c 128,-1,27
 40.3297829861 466.288664641 40.3297829861 466.288664641 74.2083159722 489.044234664 c 128,-1,28
 108.086848958 511.799804688 108.086848958 511.799804688 153.599609375 511.799804688 c 2,0,-1
EndSplineSet
EndChar

StartChar: d
Encoding: 100 100 9
Width: 715
Flags: W
LayerCount: 2
Fore
SplineSet
256 102.200195312 m 1,0,-1
 409.599609375 102.200195312 l 1,1,-1
 409.599609375 409.400390625 l 1,2,-1
 256 409.400390625 l 1,3,-1
 204.799804688 359 l 1,4,-1
 204.799804688 153.400390625 l 1,5,-1
 256 102.200195312 l 1,0,-1
614.400390625 716.599609375 m 1,6,-1
 614.400390625 -0.2001953125 l 1,7,-1
 256 -0.2001953125 l 2,8,9
 200.950414784 -0.24334638358 200.950414784 -0.24334638358 154.857976796 17.2348932221 c 128,-1,10
 108.765538807 34.7131328277 108.765538807 34.7131328277 79.0045087367 64.3193843628 c 128,-1,11
 49.2434786661 93.9256358979 49.2434786661 93.9256358979 28.4383844603 132.31804705 c 128,-1,12
 7.63329025459 170.710458202 7.63329025459 170.710458202 3.15814653247 213.154089438 c 128,-1,13
 -1.31699718966 255.597720674 -1.31699718966 255.597720674 3.16259999531 298.04838452 c 128,-1,14
 7.64219718029 340.499048366 7.64219718029 340.499048366 28.4502874147 378.92414045 c 128,-1,15
 49.258377649 417.349232534 49.258377649 417.349232534 79.0200138328 447.002230221 c 128,-1,16
 108.781650016 476.655227907 108.781650016 476.655227907 154.870321815 494.205861986 c 128,-1,17
 200.958993614 511.756496066 200.958993614 511.756496066 256 511.799804688 c 2,18,-1
 409.599609375 511.799804688 l 1,19,-1
 409.599609375 716.599609375 l 1,20,-1
 614.400390625 716.599609375 l 1,6,-1
EndSplineSet
EndChar

StartChar: E
Encoding: 69 69 10
Width: 715
Flags: W
LayerCount: 2
Fore
SplineSet
0 716.599609375 m 1,0,-1
 614.400390625 716.599609375 l 1,1,-1
 614.400390625 614.200195312 l 1,2,-1
 204.799804688 614.200195312 l 1,3,-1
 204.799804688 409.400390625 l 1,4,-1
 614.400390625 409.400390625 l 1,5,-1
 614.400390625 307 l 1,6,-1
 204.799804688 307 l 1,7,-1
 204.799804688 102.200195312 l 1,8,-1
 614.400390625 102.200195312 l 1,9,-1
 614.400390625 -0.2001953125 l 1,10,-1
 0 -0.2001953125 l 1,11,-1
 0 716.599609375 l 1,0,-1
EndSplineSet
EndChar

StartChar: F
Encoding: 70 70 11
Width: 715
Flags: W
LayerCount: 2
Fore
SplineSet
0 716.599609375 m 1,0,-1
 614.400390625 716.599609375 l 1,1,-1
 614.400390625 614.200195312 l 1,2,-1
 204.799804688 614.200195312 l 1,3,-1
 204.799804688 409.400390625 l 1,4,-1
 563.200195312 409.400390625 l 1,5,-1
 563.200195312 307 l 1,6,-1
 204.799804688 307 l 1,7,-1
 204.799804688 -0.2001953125 l 1,8,-1
 0 -0.2001953125 l 1,9,-1
 0 716.599609375 l 1,0,-1
EndSplineSet
EndChar

StartChar: G
Encoding: 71 71 12
Width: 817
Flags: W
LayerCount: 2
Fore
SplineSet
0 461.400390625 m 2,0,1
 0 575.88074877 0 575.88074877 71.3850824662 646.240179072 c 128,-1,2
 142.770164932 716.599609375 142.770164932 716.599609375 256 716.599609375 c 2,3,-1
 716.799804688 716.599609375 l 1,4,-1
 716.799804688 614.200195312 l 1,5,-1
 256 614.200195312 l 1,6,-1
 204.799804688 563 l 1,7,-1
 204.799804688 153.400390625 l 1,8,-1
 256 102.200195312 l 1,9,-1
 512 102.200195312 l 1,10,-1
 512 307 l 1,11,-1
 307.200195312 307 l 1,12,-1
 307.200195312 409.400390625 l 1,13,-1
 716.799804688 409.400390625 l 1,14,-1
 716.799804688 204.599609375 l 2,15,16
 716.799804688 -0.2001953125 716.799804688 -0.2001953125 460.799804688 -0.2001953125 c 2,17,-1
 256 -0.2001953125 l 2,18,19
 142.991155096 -0.2001953125 142.991155096 -0.2001953125 71.4955775481 70.9530332787 c 128,-1,20
 0 142.10626187 0 142.10626187 0 256.599609375 c 2,21,-1
 0 461.400390625 l 2,0,1
EndSplineSet
EndChar

StartChar: H
Encoding: 72 72 13
Width: 817
Flags: W
LayerCount: 2
Fore
SplineSet
716.799804688 716.599609375 m 1,0,-1
 716.799804688 -0.2001953125 l 1,1,-1
 512 -0.2001953125 l 1,2,-1
 512 307 l 1,3,-1
 205.799804688 307 l 1,4,-1
 204.799804688 -0.2001953125 l 1,5,-1
 0 -0.2001953125 l 1,6,-1
 0 716.599609375 l 1,7,-1
 204.799804688 716.599609375 l 1,8,-1
 204.799804688 409.400390625 l 1,9,-1
 512 409.400390625 l 1,10,-1
 512 716.599609375 l 1,11,-1
 716.799804688 716.599609375 l 1,0,-1
EndSplineSet
EndChar

StartChar: I
Encoding: 73 73 14
Width: 305
Flags: W
LayerCount: 2
Fore
SplineSet
204.799804688 -0.2001953125 m 1,0,-1
 0 -0.2001953125 l 1,1,-1
 0 716.599609375 l 1,2,-1
 204.799804688 716.599609375 l 1,3,-1
 204.799804688 -0.2001953125 l 1,0,-1
EndSplineSet
EndChar

StartChar: J
Encoding: 74 74 15
Width: 817
Flags: W
LayerCount: 2
Fore
SplineSet
716.799804688 716.599609375 m 1,0,-1
 716.799804688 153.400390625 l 2,1,2
 716.909513935 111.100242176 716.909513935 111.100242176 677.463813923 77.9829880441 c 128,-1,3
 638.01811391 44.8657339118 638.01811391 44.8657339118 574.846365674 27.8493450007 c 128,-1,4
 511.674617437 10.8329560897 511.674617437 10.8329560897 435.243936463 2.88841807326 c 128,-1,5
 358.813255488 -5.05611994314 358.813255488 -5.05611994314 282.340785317 2.95333894204 c 128,-1,6
 205.868315145 10.9627978272 205.868315145 10.9627978272 142.60753659 27.935452512 c 128,-1,7
 79.3467580355 44.9081071968 79.3467580355 44.9081071968 39.7284493108 77.6878904635 c 128,-1,8
 0.110140586147 110.46767373 0.110140586147 110.46767373 0 152.099609375 c 2,9,-1
 0 307 l 1,10,-1
 204.799804688 307 l 1,11,-1
 204.799804688 153.400390625 l 1,12,-1
 256 102.200195312 l 1,13,-1
 460.799804688 102.200195312 l 1,14,-1
 512 153.400390625 l 1,15,-1
 512 716.599609375 l 1,16,-1
 716.799804688 716.599609375 l 1,0,-1
EndSplineSet
EndChar

StartChar: K
Encoding: 75 75 16
Width: 817
Flags: W
LayerCount: 2
Fore
SplineSet
0 716.599609375 m 1,0,-1
 204.799804688 716.599609375 l 1,1,-1
 204.799804688 409.200195312 l 1,2,-1
 256 409.400390625 l 1,3,-1
 563.200195312 716.599609375 l 1,4,-1
 716.799804688 716.599609375 l 1,5,-1
 716.799804688 613.200195312 l 1,6,-1
 435 330.200195312 l 1,7,-1
 716.799804688 51 l 1,8,-1
 716.799804688 -0.2001953125 l 1,9,-1
 512 -0.2001953125 l 1,10,-1
 256 255.799804688 l 1,11,-1
 204.799804688 255.799804688 l 1,12,-1
 204.799804688 -0.2001953125 l 1,13,-1
 0 -0.2001953125 l 1,14,-1
 0 716.599609375 l 1,0,-1
EndSplineSet
EndChar

StartChar: L
Encoding: 76 76 17
Width: 715
Flags: W
LayerCount: 2
Fore
SplineSet
204.799804688 716.599609375 m 1,0,-1
 204.799804688 102.200195312 l 1,1,-1
 614.400390625 102.200195312 l 1,2,-1
 614.400390625 -0.2001953125 l 1,3,-1
 0 -1.244140625 l 1,4,-1
 0 716.599609375 l 1,5,-1
 204.799804688 716.599609375 l 1,0,-1
EndSplineSet
EndChar

StartChar: M
Encoding: 77 77 18
Width: 817
Flags: W
LayerCount: 2
Fore
SplineSet
0 716.599609375 m 1,0,-1
 512 716.599609375 l 2,1,2
 604.521846929 716.599609375 604.521846929 716.599609375 660.676590534 646.264407871 c 128,-1,3
 716.831334138 575.929206367 716.831334138 575.929206367 716.799804688 460.599609375 c 2,4,-1
 716.799804688 -0.2001953125 l 1,5,-1
 512 -0.2001953125 l 1,6,-1
 512 563 l 1,7,-1
 460.799804688 614.200195312 l 1,8,-1
 409.599609375 614.200195312 l 1,9,-1
 409.599609375 -0.2001953125 l 1,10,-1
 307.200195312 -0.2001953125 l 1,11,-1
 307.200195312 614.200195312 l 1,12,-1
 204.799804688 614.200195312 l 1,13,-1
 204.799804688 -0.2001953125 l 1,14,-1
 -1 0.7998046875 l 1,15,-1
 0 716.599609375 l 1,0,-1
EndSplineSet
EndChar

StartChar: N
Encoding: 78 78 19
Width: 817
Flags: W
LayerCount: 2
Fore
SplineSet
0 716.599609375 m 1,0,-1
 204.799804688 716.599609375 l 1,1,-1
 512 409.400390625 l 1,2,-1
 512 716.599609375 l 1,3,-1
 716.799804688 716.599609375 l 1,4,-1
 716.799804688 -0.2001953125 l 1,5,-1
 512 -0.2001953125 l 1,6,-1
 512 204.599609375 l 1,7,-1
 204.799804688 511.799804688 l 1,8,-1
 204.799804688 -0.2001953125 l 1,9,-1
 0 -0.2001953125 l 1,10,-1
 0 716.599609375 l 1,0,-1
EndSplineSet
EndChar

StartChar: h
Encoding: 104 104 20
Width: 715
Flags: W
LayerCount: 2
Fore
SplineSet
0 716.599609375 m 1,0,-1
 204.799804688 716.599609375 l 1,1,-1
 204.799804688 511.799804688 l 1,2,-1
 358.400390625 511.799804688 l 2,3,4
 414.942689237 511.799804688 414.942689237 511.799804688 461.436177952 489.847802469 c 128,-1,5
 507.929666666 467.895800251 507.929666666 467.895800251 535.300603298 436.369556906 c 128,-1,6
 562.671539931 404.843313561 562.671539931 404.843313561 581.500177952 367.518333719 c 128,-1,7
 600.328815972 330.193353877 600.328815972 330.193353877 607.364603298 301.943994406 c 128,-1,8
 614.400390625 273.694634934 614.400390625 273.694634934 614.400390625 255.799804688 c 2,9,-1
 614.400390625 -0.2001953125 l 1,10,-1
 409.599609375 -0.2001953125 l 1,11,-1
 409.599609375 359 l 1,12,-1
 358.400390625 409.400390625 l 1,13,-1
 204.799804688 409.400390625 l 1,14,-1
 204.799804688 -0.2001953125 l 1,15,-1
 0 -0.2001953125 l 1,16,-1
 0 716.599609375 l 1,0,-1
EndSplineSet
EndChar

StartChar: O
Encoding: 79 79 21
Width: 817
Flags: W
LayerCount: 2
Fore
SplineSet
204.799804688 359 m 0,0,1
 205.572606178 239.679147957 205.572606178 239.679147957 244.573690384 170.939671635 c 128,-1,2
 283.57477459 102.200195312 283.57477459 102.200195312 358.400390625 102.200195312 c 0,3,4
 412.11353497 102.200195312 412.11353497 102.200195312 443.313549361 123.29957194 c 128,-1,5
 474.513563752 144.398948568 474.513563752 144.398948568 492.019783972 200.834217122 c 128,-1,6
 509.526004192 257.269485676 509.526004192 257.269485676 512 359 c 0,7,8
 511.226305402 477.220383432 511.226305402 477.220383432 472.193289231 545.710289372 c 128,-1,9
 433.16027306 614.200195312 433.16027306 614.200195312 358.400390625 614.200195312 c 0,10,11
 283.283022724 614.200195312 283.283022724 614.200195312 243.656952372 545.345714342 c 128,-1,12
 204.03088202 476.491233372 204.03088202 476.491233372 204.799804688 359 c 0,0,1
358.400390625 716.599609375 m 0,13,14
 528.73021036 716.599609375 528.73021036 716.599609375 622.765007524 624.400313373 c 128,-1,15
 716.799804688 532.201017371 716.799804688 532.201017371 716.799804688 359 c 0,16,17
 716.799804688 188.568647166 716.799804688 188.568647166 622.18485907 94.1842259265 c 128,-1,18
 527.569913452 -0.2001953125 527.569913452 -0.2001953125 358.400390625 -0.2001953125 c 0,19,20
 188.490765736 -0.2001953125 188.490765736 -0.2001953125 94.2453828681 93.0486572187 c 128,-1,21
 0 186.29750975 0 186.29750975 0 359 c 0,22,23
 0 529.929659018 0 529.929659018 94.4102991955 623.264634196 c 128,-1,24
 188.820598391 716.599609375 188.820598391 716.599609375 358.400390625 716.599609375 c 0,13,14
EndSplineSet
EndChar

StartChar: P
Encoding: 80 80 22
Width: 817
Flags: W
LayerCount: 2
Fore
SplineSet
204.799804688 409.400390625 m 1,0,-1
 460.799804688 409.400390625 l 1,1,-1
 512 459.799804688 l 1,2,-1
 512 563 l 1,3,-1
 460.799804688 614.200195312 l 1,4,-1
 204.799804688 614.200195312 l 1,5,-1
 204.799804688 409.400390625 l 1,0,-1
0 -0.2001953125 m 1,6,-1
 0 716.599609375 l 1,7,-1
 460.799804688 716.599609375 l 2,8,9
 583.680332032 716.599609375 583.680332032 716.599609375 650.24006836 669.057044204 c 128,-1,10
 716.799804688 621.514479034 716.799804688 621.514479034 716.799804688 511.799804688 c 128,-1,11
 716.799804688 402.085688377 716.799804688 402.085688377 650.239931641 354.542844188 c 128,-1,12
 583.680058594 307 583.680058594 307 460.799804688 307 c 2,13,-1
 204.799804688 307 l 1,14,-1
 204.799804688 -0.2001953125 l 1,15,-1
 0 -0.2001953125 l 1,6,-1
EndSplineSet
EndChar

StartChar: Q
Encoding: 81 81 23
Width: 817
Flags: W
LayerCount: 2
Fore
SplineSet
409.599609375 -0.2001953125 m 1,0,-1
 617.1328125 -0.2001953125 l 1,1,-1
 716.799804688 -102.599609375 l 1,2,-1
 409.599609375 -102.599609375 l 1,3,-1
 409.599609375 -0.2001953125 l 1,0,-1
204.799804688 359 m 0,4,5
 205.572606178 239.679147957 205.572606178 239.679147957 244.573690384 170.939671635 c 128,-1,6
 283.57477459 102.200195312 283.57477459 102.200195312 358.400390625 102.200195312 c 0,7,8
 412.11353497 102.200195312 412.11353497 102.200195312 443.313549361 123.29957194 c 128,-1,9
 474.513563752 144.398948568 474.513563752 144.398948568 492.019783972 200.834217122 c 128,-1,10
 509.526004192 257.269485676 509.526004192 257.269485676 512 359 c 0,11,12
 511.226305402 477.220383432 511.226305402 477.220383432 472.193289231 545.710289372 c 128,-1,13
 433.16027306 614.200195312 433.16027306 614.200195312 358.400390625 614.200195312 c 0,14,15
 283.283022724 614.200195312 283.283022724 614.200195312 243.656952372 545.345714342 c 128,-1,16
 204.03088202 476.491233372 204.03088202 476.491233372 204.799804688 359 c 0,4,5
358.400390625 716.599609375 m 0,17,18
 528.73021036 716.599609375 528.73021036 716.599609375 622.765007524 624.400313373 c 128,-1,19
 716.799804688 532.201017371 716.799804688 532.201017371 716.799804688 359 c 0,20,21
 716.799804688 188.568647166 716.799804688 188.568647166 622.18485907 94.1842259265 c 128,-1,22
 527.569913452 -0.2001953125 527.569913452 -0.2001953125 358.400390625 -0.2001953125 c 0,23,24
 188.490765736 -0.2001953125 188.490765736 -0.2001953125 94.2453828681 93.0486572187 c 128,-1,25
 0 186.29750975 0 186.29750975 0 359 c 0,26,27
 0 529.929659018 0 529.929659018 94.4102991955 623.264634196 c 128,-1,28
 188.820598391 716.599609375 188.820598391 716.599609375 358.400390625 716.599609375 c 0,17,18
EndSplineSet
EndChar

StartChar: R
Encoding: 82 82 24
Width: 817
Flags: W
LayerCount: 2
Fore
SplineSet
204.799804688 409.400390625 m 1,0,-1
 460.799804688 409.400390625 l 1,1,-1
 512 460.599609375 l 1,2,-1
 512 563 l 1,3,-1
 460.799804688 614.200195312 l 1,4,-1
 204.799804688 614.200195312 l 1,5,-1
 204.799804688 409.400390625 l 1,0,-1
0 -0.2001953125 m 1,6,-1
 0 716.599609375 l 1,7,-1
 460.799804688 716.599609375 l 2,8,9
 583.680332032 716.599609375 583.680332032 716.599609375 650.24006836 669.057044204 c 128,-1,10
 716.799804688 621.514479034 716.799804688 621.514479034 716.799804688 511.799804688 c 0,11,12
 716.799804688 453.437176768 716.799804688 453.437176768 674.33746045 414.167128504 c 128,-1,13
 631.875116212 374.897080239 631.875116212 374.897080239 563.200195312 359 c 1,14,15
 629.953848307 335.947761187 629.953848307 335.947761187 673.376826497 281.464349472 c 128,-1,16
 716.799804688 226.980937758 716.799804688 226.980937758 716.799804688 153.400390625 c 2,17,-1
 716.799804688 -0.2001953125 l 1,18,-1
 512 -0.2001953125 l 1,19,-1
 512 255.799804688 l 1,20,-1
 460.799804688 307 l 1,21,-1
 204.799804688 307 l 1,22,-1
 204.799804688 -0.2001953125 l 1,23,-1
 0 -0.2001953125 l 1,6,-1
EndSplineSet
EndChar

StartChar: S
Encoding: 83 83 25
Width: 815
Flags: W
LayerCount: 2
Fore
SplineSet
204.799804688 716.599609375 m 2,0,-1
 665.599609375 716.599609375 l 1,1,-1
 665.599609375 614.200195312 l 1,2,-1
 256 614.200195312 l 1,3,-1
 204.799804688 563 l 1,4,-1
 204.799804688 460.599609375 l 1,5,-1
 256 409.400390625 l 1,6,-1
 512 409.400390625 l 2,7,8
 556.13760076 409.741971235 556.13760076 409.741971235 593.054949889 396.019104212 c 128,-1,9
 629.972299018 382.296237188 629.972299018 382.296237188 653.775417588 358.781086278 c 128,-1,10
 677.578536158 335.265935368 677.578536158 335.265935368 694.189506537 304.672683065 c 128,-1,11
 710.800476916 274.079430763 710.800476916 274.079430763 714.331029407 240.153254381 c 128,-1,12
 717.861581897 206.227077999 717.861581897 206.227077999 714.227709019 172.244278895 c 128,-1,13
 710.593836142 138.26147979 710.593836142 138.26147979 693.913358046 107.405116414 c 128,-1,14
 677.23287995 76.5487530376 677.23287995 76.5487530376 653.41569931 52.6572456083 c 128,-1,15
 629.59851867 28.765738179 629.59851867 28.765738179 592.768545482 14.460026286 c 128,-1,16
 555.938572293 0.154314392873 555.938572293 0.154314392873 512 -0.2001953125 c 2,17,-1
 0 -0.2001953125 l 1,18,-1
 0 102.200195312 l 1,19,-1
 460.799804688 102.200195312 l 1,20,-1
 512 153.400390625 l 1,21,-1
 512 255.799804688 l 1,22,-1
 460.799804688 307 l 1,23,-1
 204.799804688 307 l 2,24,25
 160.357657245 306.926932594 160.357657245 306.926932594 123.30720568 320.873141951 c 128,-1,26
 86.2567541142 334.819351308 86.2567541142 334.819351308 62.4757804315 358.477480156 c 128,-1,27
 38.6948067487 382.135609004 38.6948067487 382.135609004 22.1911112866 412.827705672 c 128,-1,28
 5.68741582453 443.519802341 5.68741582453 443.519802341 2.31553576841 477.465632805 c 128,-1,29
 -1.05634428771 511.411463269 -1.05634428771 511.411463269 2.73618587511 545.370811061 c 128,-1,30
 6.52871603793 579.330158853 6.52871603793 579.330158853 23.31539913 610.085054744 c 128,-1,31
 40.1020822221 640.839950636 40.1020822221 640.839950636 63.9403075315 664.587913363 c 128,-1,32
 87.7785328408 688.33587609 87.7785328408 688.33587609 124.473248603 702.421201221 c 128,-1,33
 161.167964365 716.506526352 161.167964365 716.506526352 204.799804688 716.599609375 c 2,0,-1
EndSplineSet
EndChar

StartChar: T
Encoding: 84 84 26
Width: 715
Flags: W
LayerCount: 2
Fore
SplineSet
0 716.599609375 m 1,0,-1
 614.400390625 716.599609375 l 1,1,-1
 614.400390625 614.200195312 l 1,2,-1
 409.599609375 614.200195312 l 1,3,-1
 409.599609375 -0.2001953125 l 1,4,-1
 204.799804688 -0.2001953125 l 1,5,-1
 204.799804688 614.200195312 l 1,6,-1
 0 614.200195312 l 1,7,-1
 0 716.599609375 l 1,0,-1
EndSplineSet
EndChar

StartChar: U
Encoding: 85 85 27
Width: 817
Flags: W
LayerCount: 2
Fore
SplineSet
0 716.599609375 m 1,0,-1
 204.799804688 716.599609375 l 1,1,-1
 204.799804688 153.400390625 l 1,2,-1
 256 102.200195312 l 1,3,-1
 460.799804688 102.200195312 l 1,4,-1
 512 153.400390625 l 1,5,-1
 512 716.599609375 l 1,6,-1
 716.799804688 716.599609375 l 1,7,-1
 716.799804688 -0.2001953125 l 1,8,-1
 563.200195312 -0.2001953125 l 1,9,-1
 563.200195312 51 l 1,10,-1
 512 -0.2001953125 l 1,11,-1
 256 -0.2001953125 l 2,12,13
 133.120283203 -0.2001953125 133.120283203 -0.2001953125 66.5601416016 47.3427111567 c 128,-1,14
 0 94.8856176259 0 94.8856176259 0 204.599609375 c 2,15,-1
 0 716.599609375 l 1,0,-1
EndSplineSet
EndChar

StartChar: V
Encoding: 86 86 28
Width: 920
Flags: W
LayerCount: 2
Fore
SplineSet
0 716.599609375 m 1,0,-1
 204.799804688 716.599609375 l 1,1,-1
 409.599609375 102.200195312 l 1,2,-1
 460.799804688 102.200195312 l 1,3,-1
 665.599609375 716.599609375 l 1,4,-1
 819.200195312 716.599609375 l 1,5,-1
 819.200195312 614.200195312 l 1,6,-1
 614.400390625 -0.2001953125 l 1,7,-1
 204.799804688 -0.2001953125 l 1,8,-1
 0 614.200195312 l 1,9,-1
 0 716.599609375 l 1,0,-1
EndSplineSet
EndChar

StartChar: W
Encoding: 87 87 29
Width: 817
Flags: W
LayerCount: 2
Fore
SplineSet
0 -0.2001953125 m 1,0,-1
 -1 715.599609375 l 1,1,-1
 204.799804688 716.599609375 l 1,2,-1
 204.799804688 102.200195312 l 1,3,-1
 307.200195312 102.200195312 l 1,4,-1
 307.200195312 716.599609375 l 1,5,-1
 409.599609375 716.599609375 l 1,6,-1
 409.599609375 102.200195312 l 1,7,-1
 460.799804688 102.200195312 l 1,8,-1
 512 153.400390625 l 1,9,-1
 512 716.599609375 l 1,10,-1
 716.799804688 716.599609375 l 1,11,-1
 716.799804688 255.799804688 l 2,12,13
 716.831334186 140.470765439 716.831334186 140.470765439 660.676520944 70.1352850633 c 128,-1,14
 604.521707702 -0.2001953125 604.521707702 -0.2001953125 512 -0.2001953125 c 2,15,-1
 0 -0.2001953125 l 1,0,-1
EndSplineSet
EndChar

StartChar: Z
Encoding: 90 90 30
Width: 817
Flags: W
LayerCount: 2
Fore
SplineSet
0 716.599609375 m 1,0,-1
 716.799804688 716.599609375 l 1,1,-1
 716.799804688 563 l 1,2,-1
 256 102.200195312 l 1,3,-1
 716.799804688 102.200195312 l 1,4,-1
 716.799804688 -0.2001953125 l 1,5,-1
 0 -0.2001953125 l 1,6,-1
 0 153.400390625 l 1,7,-1
 460.799804688 614.200195312 l 1,8,-1
 0 613.200195312 l 1,9,-1
 0 716.599609375 l 1,0,-1
EndSplineSet
EndChar

StartChar: X
Encoding: 88 88 31
Width: 817
Flags: W
LayerCount: 2
Fore
SplineSet
0 716.599609375 m 1,0,-1
 129.599609375 716.599609375 l 1,1,-1
 358.400390625 487.799804688 l 1,2,-1
 591.200195312 716.599609375 l 1,3,-1
 716.799804688 716.599609375 l 1,4,-1
 716.799804688 585 l 1,5,-1
 485 359 l 1,6,-1
 716.799804688 125.400390625 l 1,7,-1
 716.799804688 -0.2001953125 l 1,8,-1
 587.200195312 -0.2001953125 l 1,9,-1
 358.400390625 227.599609375 l 1,10,-1
 126.599609375 -0.2001953125 l 1,11,-1
 0 -0.2001953125 l 1,12,-1
 0 127.400390625 l 1,13,-1
 233.799804688 359 l 1,14,-1
 0 588 l 1,15,-1
 0 716.599609375 l 1,0,-1
EndSplineSet
EndChar

StartChar: Y
Encoding: 89 89 32
Width: 920
Flags: W
LayerCount: 2
Fore
SplineSet
0 716.599609375 m 1,0,-1
 153.599609375 716.599609375 l 1,1,-1
 409.599609375 460.599609375 l 1,2,-1
 665.599609375 716.599609375 l 1,3,-1
 819.200195312 716.599609375 l 1,4,-1
 819.200195312 666.400390625 l 1,5,-1
 512 359 l 1,6,-1
 512 -0.2001953125 l 1,7,-1
 307.200195312 -0.2001953125 l 1,8,-1
 307.200195312 359 l 1,9,-1
 0 664.400390625 l 1,10,-1
 0 716.599609375 l 1,0,-1
EndSplineSet
EndChar

StartChar: q
Encoding: 113 113 33
Width: 715
Flags: W
LayerCount: 2
Fore
SplineSet
256.00390625 102.200195312 m 1,0,-1
 409.603515625 102.200195312 l 1,1,-1
 409.603515625 409.400390625 l 1,2,-1
 256.00390625 409.400390625 l 1,3,-1
 204.803710938 359 l 1,4,-1
 204.803710938 153.400390625 l 1,5,-1
 256.00390625 102.200195312 l 1,0,-1
614.403320312 511.799804688 m 1,6,-1
 614.403320312 -205 l 1,7,-1
 409.603515625 -205 l 1,8,-1
 406.610351562 -0.2001953125 l 1,9,-1
 256.00390625 -0.2001953125 l 2,10,11
 200.761738194 -0.279883706522 200.761738194 -0.279883706522 154.587788963 17.1306867776 c 128,-1,12
 108.413839731 34.5412572616 108.413839731 34.5412572616 78.6635854586 64.0731857147 c 128,-1,13
 48.9133311863 93.6051141678 48.9133311863 93.6051141678 28.1765235306 131.918074788 c 128,-1,14
 7.43971587481 170.231035408 7.43971587481 170.231035408 3.06069676265 212.618056685 c 128,-1,15
 -1.31832234952 255.005077963 -1.31832234952 255.005077963 3.26207522809 297.419776069 c 128,-1,16
 7.8424728057 339.834474176 7.8424728057 339.834474176 28.7147525111 378.275935629 c 128,-1,17
 49.5870322165 416.717397082 49.5870322165 416.717397082 79.3646986849 446.433180026 c 128,-1,18
 109.142365153 476.14896297 109.142365153 476.14896297 155.146007334 493.844211949 c 128,-1,19
 201.149649514 511.539460929 201.149649514 511.539460929 256.00390625 511.799804688 c 2,20,-1
 614.403320312 511.799804688 l 1,6,-1
EndSplineSet
EndChar

StartChar: e
Encoding: 101 101 34
Width: 715
Flags: W
LayerCount: 2
Fore
SplineSet
409.599609375 307 m 1,0,-1
 409.599609375 359 l 1,1,-1
 358.400390625 409.400390625 l 1,2,-1
 256 409.400390625 l 1,3,-1
 204.799804688 359 l 1,4,-1
 204.799804688 307 l 1,5,-1
 409.599609375 307 l 1,0,-1
307.200195312 511.799804688 m 0,6,7
 470.375713532 511.799804688 470.375713532 511.799804688 542.388052079 458.920661879 c 128,-1,8
 614.400390625 406.04151907 614.400390625 406.04151907 614.400390625 307 c 2,9,-1
 614.400390625 204.599609375 l 1,10,-1
 204.799804688 204.599609375 l 1,11,-1
 204.799804688 153.400390625 l 1,12,-1
 256 102.200195312 l 1,13,-1
 546.400390625 102.200195312 l 1,14,-1
 546.400390625 -0.2001953125 l 1,15,-1
 307.200195312 -0.2001953125 l 2,16,17
 173.111553435 -0.2001953125 173.111553435 -0.2001953125 86.5557767175 54.9462047948 c 128,-1,18
 0 110.092604902 0 110.092604902 0 200.599609375 c 2,19,-1
 0 302 l 2,20,21
 0 394.781300971 0 394.781300971 87.0034825211 453.290552829 c 128,-1,22
 174.006965042 511.799804688 174.006965042 511.799804688 307.200195312 511.799804688 c 0,6,7
EndSplineSet
EndChar

StartChar: f
Encoding: 102 102 35
Width: 612
Flags: W
LayerCount: 2
Fore
SplineSet
460.799804688 716.599609375 m 2,0,-1
 512 716.599609375 l 1,1,-1
 512 612.700195312 l 1,2,-1
 358.400390625 614.200195312 l 1,3,-1
 307.200195312 563 l 1,4,-1
 307.200195312 511.799804688 l 1,5,-1
 512 511.799804688 l 1,6,-1
 512 410.200195312 l 1,7,-1
 307.200195312 409.400390625 l 1,8,-1
 307.200195312 -0.2001953125 l 1,9,-1
 102.400390625 -0.2001953125 l 1,10,-1
 102.400390625 409.400390625 l 1,11,-1
 0 409.400390625 l 1,12,-1
 0 511.799804688 l 1,13,-1
 102.400390625 511.799804688 l 1,14,15
 102.400390625 568.00900471 102.400390625 568.00900471 129.6973442 608.727559745 c 128,-1,16
 156.994297776 649.44611478 156.994297776 649.44611478 207.178052528 672.469263375 c 128,-1,17
 257.36180728 695.49241197 257.36180728 695.49241197 319.846941368 706.046010673 c 128,-1,18
 382.332075457 716.599609375 382.332075457 716.599609375 460.799804688 716.599609375 c 2,0,-1
EndSplineSet
EndChar

StartChar: g
Encoding: 103 103 36
Width: 715
Flags: W
LayerCount: 2
Fore
SplineSet
258.400390625 102.200195312 m 1,0,-1
 406.400390625 102.200195312 l 1,1,-1
 409.599609375 358.200195312 l 1,2,-1
 409.599609375 409.400390625 l 1,3,-1
 256 409.400390625 l 1,4,-1
 204.799804688 358.200195312 l 1,5,-1
 204.799804688 154.200195312 l 1,6,-1
 258.400390625 102.200195312 l 1,0,-1
614.400390625 511.799804688 m 1,7,-1
 614.400390625 -43.400390625 l 2,8,9
 614.400390625 -117.934366241 614.400390625 -117.934366241 562.744556787 -161.46718312 c 128,-1,10
 511.088722948 -205 511.088722948 -205 433.400390625 -205 c 2,11,-1
 51.2001953125 -205 l 1,12,-1
 51.2001953125 -102.599609375 l 1,13,-1
 307.200195312 -102.599609375 l 1,14,-1
 384.900390625 -82 l 1,15,-1
 409.599609375 -51.400390625 l 1,16,-1
 409.599609375 -0.2001953125 l 1,17,-1
 213.900390625 -0.2001953125 l 2,18,19
 168.47028331 -0.494983319589 168.47028331 -0.494983319589 130.286378474 16.7709916636 c 128,-1,20
 92.1024736382 34.0369666467 92.1024736382 34.0369666467 67.2689480111 63.5049294398 c 128,-1,21
 42.435422384 92.9728922329 42.435422384 92.9728922329 24.8851573023 131.267476574 c 128,-1,22
 7.33489222051 169.562060916 7.33489222051 169.562060916 3.13634984581 211.983024433 c 128,-1,23
 -1.06219252889 254.40398795 -1.06219252889 254.40398795 2.06196467965 296.873529386 c 128,-1,24
 5.1861218882 339.343070823 5.1861218882 339.343070823 21.6633453019 377.863382801 c 128,-1,25
 38.1405687156 416.383694778 38.1405687156 416.383694778 61.9799307505 446.174541046 c 128,-1,26
 85.8192927853 475.965387314 85.8192927853 475.965387314 123.013064523 493.731395489 c 128,-1,27
 160.206836262 511.497403664 160.206836262 511.497403664 204.799804688 511.799804688 c 2,28,-1
 614.400390625 511.799804688 l 1,7,-1
EndSplineSet
EndChar

StartChar: i
Encoding: 105 105 37
Width: 305
Flags: W
LayerCount: 2
Fore
SplineSet
0 717.032226562 m 1,0,-1
 204.799804688 716.897460938 l 1,1,-1
 204.799804688 613.6328125 l 1,2,-1
 0 613.6328125 l 1,3,-1
 0 717.032226562 l 1,0,-1
0 512.232421875 m 1,4,-1
 204.799804688 512.232421875 l 1,5,-1
 204.799804688 -0.2001953125 l 1,6,-1
 0 -0.2001953125 l 1,7,-1
 0 512.232421875 l 1,4,-1
EndSplineSet
EndChar

StartChar: j
Encoding: 106 106 38
Width: 715
Flags: W
LayerCount: 2
Fore
SplineSet
409.599609375 716.599609375 m 1,0,-1
 614.400390625 716.599609375 l 1,1,-1
 614.400390625 613.334960938 l 1,2,-1
 409.599609375 613.200195312 l 1,3,-1
 409.599609375 716.599609375 l 1,0,-1
409.599609375 511.799804688 m 1,4,-1
 614.400390625 511.935546875 l 1,5,-1
 614.400390625 0.0703125 l 2,6,7
 614.400390625 -43.6341635622 614.400390625 -43.6341635622 593.383093312 -80.2173232718 c 128,-1,8
 572.365795999 -116.800482981 572.365795999 -116.800482981 536.810217838 -140.413982187 c 128,-1,9
 501.254639677 -164.027481393 501.254639677 -164.027481393 455.164075394 -180.529761651 c 128,-1,10
 409.073511111 -197.032041908 409.073511111 -197.032041908 358.136853212 -200.578095592 c 128,-1,11
 307.200195312 -204.124149275 307.200195312 -204.124149275 256.263537413 -200.56885898 c 128,-1,12
 205.326879514 -197.013568685 205.326879514 -197.013568685 159.236315231 -180.515485745 c 128,-1,13
 113.145750948 -164.017402806 113.145750948 -164.017402806 77.5901727873 -140.427850857 c 128,-1,14
 42.0345946261 -116.838298907 42.0345946261 -116.838298907 21.017297313 -80.3193882444 c 128,-1,15
 0 -43.8004775813 0 -43.8004775813 0 -0.2001953125 c 1,16,-1
 204.799804688 -0.2001953125 l 1,17,-1
 204.799804688 -77 l 1,18,-1
 256 -102.599609375 l 1,19,-1
 358.400390625 -102.599609375 l 1,20,-1
 409.599609375 -77 l 1,21,-1
 409.599609375 -0.064453125 l 1,22,-1
 409.599609375 511.799804688 l 1,4,-1
EndSplineSet
EndChar

StartChar: k
Encoding: 107 107 39
Width: 715
Flags: W
LayerCount: 2
Fore
SplineSet
0 716.599609375 m 1,0,-1
 204.799804688 716.599609375 l 1,1,-1
 204.799804688 339 l 1,2,-1
 226 339 l 1,3,-1
 460.799804688 511.799804688 l 1,4,-1
 614.400390625 511.799804688 l 1,5,-1
 614.400390625 434.521484375 l 1,6,-1
 409.599609375 276.548828125 l 1,7,-1
 614.400390625 80.986328125 l 1,8,-1
 614.400390625 -0.2001953125 l 1,9,-1
 460.799804688 -0.2001953125 l 1,10,-1
 226 224.599609375 l 1,11,-1
 204.799804688 224.599609375 l 1,12,-1
 204.799804688 -0.2001953125 l 1,13,-1
 0 -0.2001953125 l 1,14,-1
 0 716.599609375 l 1,0,-1
EndSplineSet
EndChar

StartChar: l
Encoding: 108 108 40
Width: 305
Flags: W
LayerCount: 2
Fore
SplineSet
0 716.599609375 m 1,0,-1
 204.799804688 716.599609375 l 1,1,-1
 204.799804688 -0.2001953125 l 1,2,-1
 0 -0.2001953125 l 1,3,-1
 0 716.599609375 l 1,0,-1
EndSplineSet
EndChar

StartChar: m
Encoding: 109 109 41
Width: 817
Flags: W
LayerCount: 2
Fore
SplineSet
0 511.799804688 m 1,0,-1
 512 511.799804688 l 2,1,2
 585.512661218 511.340649679 585.512661218 511.340649679 651.892239954 446.854027052 c 128,-1,3
 718.27181869 382.367404425 718.27181869 382.367404425 716.799804688 307 c 2,4,-1
 716.799804688 -0.2001953125 l 1,5,-1
 512 -0.2001953125 l 1,6,-1
 512 359 l 1,7,-1
 460.799804688 409.400390625 l 1,8,-1
 409.599609375 409.400390625 l 1,9,-1
 409.599609375 -0.400390625 l 1,10,-1
 307.200195312 -0.2001953125 l 1,11,-1
 307.200195312 409.400390625 l 1,12,-1
 204.799804688 409.400390625 l 1,13,-1
 204.799804688 -0.400390625 l 1,14,-1
 0 -0.2001953125 l 1,15,-1
 0 511.799804688 l 1,0,-1
EndSplineSet
EndChar

StartChar: n
Encoding: 110 110 42
Width: 715
Flags: W
LayerCount: 2
Fore
SplineSet
0 511.299804688 m 1,0,-1
 358.400390625 511.799804688 l 2,1,2
 467.567153719 511.799804688 467.567153719 511.799804688 541.760798248 449.183789205 c 128,-1,3
 615.954442777 386.567773723 615.954442777 386.567773723 614.400390625 307 c 2,4,-1
 614.400390625 -0.2001953125 l 1,5,-1
 409.599609375 -0.2001953125 l 1,6,-1
 409.599609375 359 l 1,7,-1
 358.400390625 409.400390625 l 1,8,-1
 204.799804688 409.400390625 l 1,9,-1
 204.799804688 -0.2001953125 l 1,10,-1
 0 0.2998046875 l 1,11,-1
 0 511.299804688 l 1,0,-1
EndSplineSet
EndChar

StartChar: o
Encoding: 111 111 43
Width: 715
Flags: W
LayerCount: 2
Fore
SplineSet
307.200195312 409.400390625 m 128,-1,1
 265.487123128 409.400390625 265.487123128 409.400390625 235.143463908 369.100179036 c 128,-1,2
 204.799804688 328.799967448 204.799804688 328.799967448 204.799804688 255.799804688 c 0,3,4
 204.799804688 183.266845703 204.799804688 183.266845703 235.199943543 142.733520508 c 128,-1,5
 265.600082398 102.200195312 265.600082398 102.200195312 307.200195312 102.200195312 c 128,-1,6
 348.800186158 102.200195312 348.800186158 102.200195312 379.199897766 142.733466254 c 128,-1,7
 409.599609375 183.266737195 409.599609375 183.266737195 409.599609375 255.799804688 c 0,8,9
 409.599609375 328.800075532 409.599609375 328.800075532 379.256376683 369.100233079 c 128,-1,0
 348.913143991 409.400390625 348.913143991 409.400390625 307.200195312 409.400390625 c 128,-1,1
307.200195312 511.799804688 m 0,10,11
 373.563963175 511.799804688 373.563963175 511.799804688 428.460454027 496.671225114 c 128,-1,12
 483.356944879 481.542645541 483.356944879 481.542645541 525.460917433 451.205621199 c 128,-1,13
 567.564889987 420.868596858 567.564889987 420.868596858 590.982640306 371.004263444 c 128,-1,14
 614.400390625 321.139930031 614.400390625 321.139930031 614.400390625 255.799804688 c 0,15,16
 614.400390625 171.098221184 614.400390625 171.098221184 573.070407166 112.301817666 c 128,-1,17
 531.740423707 53.5054141475 531.740423707 53.5054141475 463.914944396 26.6526094175 c 128,-1,18
 396.089465086 -0.2001953125 396.089465086 -0.2001953125 307.200195312 -0.2001953125 c 0,19,20
 240.963882428 -0.2001953125 240.963882428 -0.2001953125 185.961179094 15.1608287908 c 128,-1,21
 130.958475761 30.5218528942 130.958475761 30.5218528942 88.9182306956 61.0906207941 c 128,-1,22
 46.8779856303 91.6593886941 46.8779856303 91.6593886941 23.4389928152 141.562409601 c 128,-1,23
 0 191.465430509 0 191.465430509 0 256.491210938 c 0,24,25
 0.364935552881 321.774403695 0.364935552881 321.774403695 23.9571063745 371.438475062 c 128,-1,26
 47.549277196 421.102546429 47.549277196 421.102546429 89.7126171363 451.230500768 c 128,-1,27
 131.875957077 481.358455108 131.875957077 481.358455108 186.479292654 496.425474573 c 128,-1,28
 241.082628231 511.492494039 241.082628231 511.492494039 307.200195312 511.799804688 c 0,10,11
EndSplineSet
EndChar

StartChar: r
Encoding: 114 114 44
Width: 612
Flags: W
LayerCount: 2
Fore
SplineSet
0 511.799804688 m 1,0,-1
 204.799804688 511.799804688 l 1,1,-1
 204.799804688 381.400390625 l 1,2,3
 267.038576196 489.767645014 267.038576196 489.767645014 409.599609375 511.799804688 c 1,4,-1
 512 511.799804688 l 1,5,-1
 512 379 l 1,6,-1
 409.599609375 379 l 1,7,8
 338.80439889 364.840957903 338.80439889 364.840957903 291.232232703 326.921945905 c 128,-1,9
 243.660066516 289.002933908 243.660066516 289.002933908 204.799804688 225.799804688 c 1,10,-1
 204.799804688 -0.2001953125 l 1,11,-1
 0 -1.400390625 l 1,12,-1
 0 511.799804688 l 1,0,-1
EndSplineSet
EndChar

StartChar: t
Encoding: 116 116 45
Width: 715
Flags: W
LayerCount: 2
Fore
SplineSet
0 511.799804688 m 1,0,-1
 204.799804688 511.799804688 l 1,1,-1
 204.799804688 716.599609375 l 1,2,-1
 409.599609375 716.599609375 l 1,3,-1
 409.599609375 511.799804688 l 1,4,-1
 614.400390625 511.799804688 l 1,5,-1
 614.400390625 409.400390625 l 1,6,-1
 409.599609375 409.400390625 l 1,7,-1
 409.599609375 -0.2001953125 l 1,8,-1
 204.799804688 -0.2001953125 l 1,9,-1
 204.799804688 409.400390625 l 1,10,-1
 0 409.400390625 l 1,11,-1
 0 511.799804688 l 1,0,-1
EndSplineSet
EndChar

StartChar: u
Encoding: 117 117 46
Width: 715
Flags: W
LayerCount: 2
Fore
SplineSet
0 511.799804688 m 1,0,-1
 204.799804688 511.799804688 l 1,1,-1
 204.799804688 153.400390625 l 1,2,-1
 256 102.200195312 l 1,3,-1
 409.599609375 102.200195312 l 1,4,-1
 409.599609375 511.799804688 l 1,5,-1
 614.400390625 511.799804688 l 1,6,-1
 614.400390625 -0.2001953125 l 1,7,-1
 256 -0.2001953125 l 2,8,9
 137.640350877 -0.2001953125 137.640350877 -0.2001953125 68.8201754386 42.4784205316 c 128,-1,10
 0 85.1570363756 0 85.1570363756 0 173.092773438 c 2,11,-1
 0 511.799804688 l 1,0,-1
EndSplineSet
EndChar

StartChar: v
Encoding: 118 118 47
Width: 715
Flags: W
LayerCount: 2
Fore
SplineSet
0 511.799804688 m 1,0,-1
 204.799804688 511.799804688 l 1,1,-1
 307.200195312 102.200195312 l 1,2,-1
 326 102.200195312 l 1,3,-1
 460.799804688 511.799804688 l 1,4,-1
 614.400390625 511.799804688 l 1,5,-1
 460.799804688 -0.2001953125 l 1,6,-1
 128.505859375 -0.2001953125 l 1,7,-1
 0 438.391601562 l 1,8,-1
 0 511.799804688 l 1,0,-1
EndSplineSet
EndChar

StartChar: w
Encoding: 119 119 48
Width: 817
Flags: W
LayerCount: 2
Fore
SplineSet
0 -0.400390625 m 1,0,-1
 0 511.599609375 l 1,1,-1
 204.799804688 511.799804688 l 1,2,-1
 204.799804688 102 l 1,3,-1
 307.200195312 102 l 1,4,-1
 307.200195312 511.599609375 l 1,5,-1
 409.599609375 511.799804688 l 1,6,-1
 409.599609375 102 l 1,7,-1
 460.799804688 102 l 1,8,-1
 512 152.400390625 l 1,9,-1
 512 511.599609375 l 1,10,-1
 716.799804688 511.599609375 l 1,11,-1
 716.799804688 204.400390625 l 2,12,13
 718.271817049 129.033070231 718.271817049 129.033070231 651.89228908 64.5462915246 c 128,-1,14
 585.51276111 0.0595128182266 585.51276111 0.0595128182266 512 -0.400390625 c 2,15,-1
 0 -0.400390625 l 1,0,-1
EndSplineSet
EndChar

StartChar: x
Encoding: 120 120 49
Width: 715
Flags: W
LayerCount: 2
Fore
SplineSet
0 511.799804688 m 1,0,-1
 153.599609375 511.799804688 l 1,1,-1
 307.200195312 359 l 1,2,-1
 460.799804688 511.799804688 l 1,3,-1
 614.400390625 511.799804688 l 1,4,-1
 614.400390625 460.599609375 l 1,5,-1
 409.599609375 255.799804688 l 1,6,-1
 614.400390625 51 l 1,7,-1
 614.400390625 -0.2001953125 l 1,8,-1
 460.799804688 -0.2001953125 l 1,9,-1
 307.200195312 153.400390625 l 1,10,-1
 153.599609375 -0.2001953125 l 1,11,-1
 0 -0.2001953125 l 1,12,-1
 0 51 l 1,13,-1
 204.799804688 255.799804688 l 1,14,-1
 0 460.599609375 l 1,15,-1
 0 511.799804688 l 1,0,-1
EndSplineSet
EndChar

StartChar: y
Encoding: 121 121 50
Width: 715
Flags: W
LayerCount: 2
Fore
SplineSet
0 511.799804688 m 1,0,-1
 204.799804688 511.799804688 l 1,1,-1
 204.799804688 153.400390625 l 1,2,-1
 256 102.200195312 l 1,3,-1
 409.599609375 102.200195312 l 1,4,-1
 409.599609375 511.799804688 l 1,5,-1
 614.400390625 511.799804688 l 1,6,-1
 614.400390625 -0.2001953125 l 2,7,8
 614.400390625 -76.6028751663 614.400390625 -76.6028751663 549.699991544 -140.801437583 c 128,-1,9
 484.999592463 -205 484.999592463 -205 409.599609375 -205 c 2,10,-1
 100 -205 l 1,11,-1
 100 -102.599609375 l 1,12,-1
 358.400390625 -102.599609375 l 1,13,-1
 409.599609375 -51.400390625 l 1,14,-1
 409.599609375 -0.2001953125 l 1,15,-1
 256 -0.0537109375 l 2,16,17
 137.554218968 0.0596453763782 137.554218968 0.0596453763782 68.777109484 42.6286180363 c 128,-1,18
 0 85.1975906962 0 85.1975906962 0 173.092773438 c 2,19,-1
 0 511.799804688 l 1,0,-1
EndSplineSet
EndChar

StartChar: z
Encoding: 122 122 51
Width: 715
Flags: W
LayerCount: 2
Fore
SplineSet
0 511.799804688 m 1,0,-1
 614.400390625 511.799804688 l 1,1,-1
 614.400390625 409.400390625 l 1,2,-1
 256 102.200195312 l 1,3,-1
 614.400390625 102.200195312 l 1,4,-1
 614.400390625 -0.2001953125 l 1,5,-1
 0 -0.2001953125 l 1,6,-1
 0 103 l 1,7,-1
 358.400390625 409.400390625 l 1,8,-1
 0 410.200195312 l 1,9,-1
 0 511.799804688 l 1,0,-1
EndSplineSet
EndChar

StartChar: zero
Encoding: 48 48 52
Width: 715
Flags: W
LayerCount: 2
Fore
SplineSet
409.599609375 359 m 1,0,-1
 204.799804688 204.599609375 l 1,1,-1
 204.799804688 153.400390625 l 1,2,-1
 256 102.200195312 l 1,3,-1
 358.400390625 102.200195312 l 1,4,-1
 409.599609375 153.400390625 l 1,5,-1
 409.599609375 359 l 1,0,-1
358.400390625 614.200195312 m 1,6,-1
 256 614.200195312 l 1,7,-1
 204.799804688 563 l 1,8,-1
 204.799804688 359 l 1,9,-1
 409.599609375 511.799804688 l 1,10,-1
 409.599609375 563 l 1,11,-1
 358.400390625 614.200195312 l 1,6,-1
307.200195312 716.599609375 m 128,-1,13
 614.399902344 716.599609375 614.399902344 716.599609375 614.400390625 409.400390625 c 2,14,-1
 614.400390625 307 l 2,15,16
 614.400390625 -0.19970703125 614.400390625 -0.19970703125 307.200195312 -0.2001953125 c 128,-1,17
 0.00048828125 -0.2001953125 0.00048828125 -0.2001953125 0 307 c 2,18,-1
 0 409.400390625 l 2,19,12
 0 716.600097656 0 716.600097656 307.200195312 716.599609375 c 128,-1,13
EndSplineSet
EndChar

StartChar: one
Encoding: 49 49 53
Width: 612
Flags: W
LayerCount: 2
Fore
SplineSet
0 460.599609375 m 1,0,-1
 307.200195312 716.599609375 l 1,1,-1
 512 715.599609375 l 1,2,-1
 512 -1.2001953125 l 1,3,-1
 307.200195312 -1.2001953125 l 1,4,-1
 307.200195312 535.799804688 l 1,5,-1
 153.599609375 409.400390625 l 1,6,-1
 0 409.400390625 l 1,7,-1
 0 460.599609375 l 1,0,-1
EndSplineSet
EndChar

StartChar: two
Encoding: 50 50 54
Width: 715
Flags: W
LayerCount: 2
Fore
SplineSet
0 511.799804688 m 1,0,1
 0 541.057039222 0 541.057039222 0.773717116321 555.984174278 c 128,-1,2
 1.54743423264 570.911309334 1.54743423264 570.911309334 7.0980030003 596.585941771 c 128,-1,3
 12.648571768 622.260574207 12.648571768 622.260574207 23.5142418977 635.993478669 c 128,-1,4
 34.3799120274 649.726383131 34.3799120274 649.726383131 56.077594837 667.638875444 c 128,-1,5
 77.7752776467 685.551367757 77.7752776467 685.551367757 109.228527612 694.507589001 c 128,-1,6
 140.681777577 703.463810245 140.681777577 703.463810245 189.022201251 710.03170981 c 128,-1,7
 237.362624925 716.599609375 237.362624925 716.599609375 300 716.599609375 c 0,8,9
 464.087201851 716.599609375 464.087201851 716.599609375 539.243796238 670.618749847 c 128,-1,10
 614.400390625 624.63789032 614.400390625 624.63789032 614.400390625 511.799804688 c 2,11,-1
 614.400390625 489.599609375 l 2,12,13
 614.400390625 447.745226802 614.400390625 447.745226802 591.810659574 416.991521728 c 128,-1,14
 569.220928522 386.237816655 569.220928522 386.237816655 533.097261686 368.135066965 c 128,-1,15
 496.973594851 350.032317275 496.973594851 350.032317275 453.286846254 335.533977997 c 128,-1,16
 409.600097656 321.035638718 409.600097656 321.035638718 365.913349059 306.584245855 c 128,-1,17
 322.226600462 292.132852992 322.226600462 292.132852992 286.102933626 274.130119578 c 128,-1,18
 249.97926679 256.127386164 249.97926679 256.127386164 227.389535739 225.567590198 c 128,-1,19
 204.799804688 195.007794231 204.799804688 195.007794231 204.799804688 153.400390625 c 2,20,-1
 204.799804688 102.200195312 l 1,21,-1
 614.400390625 102.200195312 l 1,22,-1
 614.400390625 -0.2001953125 l 1,23,-1
 0 -0.2001953125 l 1,24,-1
 0 102.200195312 l 2,25,26
 0 206.259558553 0 206.259558553 77.9401521372 289.783686791 c 128,-1,27
 155.880304274 373.30781503 155.880304274 373.30781503 256 386.400390625 c 0,28,29
 322.794939854 397.531327519 322.794939854 397.531327519 358.400390625 409.400390625 c 1,30,-1
 409.599609375 460.599609375 l 1,31,-1
 409.599609375 563 l 1,32,-1
 358.400390625 614.200195312 l 1,33,-1
 256 614.200195312 l 1,34,-1
 204.799804688 563 l 1,35,-1
 204.799804688 511.799804688 l 1,36,-1
 0 511.799804688 l 1,0,1
EndSplineSet
EndChar

StartChar: three
Encoding: 51 51 55
Width: 715
Flags: W
LayerCount: 2
Fore
SplineSet
0 511.799804688 m 1,0,1
 0 556.276238595 0 556.276238595 17.3976149426 592.45185209 c 128,-1,2
 34.7952298851 628.627465585 34.7952298851 628.627465585 61.8601350574 651.152733847 c 128,-1,3
 88.9250402297 673.67800211 88.9250402297 673.67800211 123.868146193 688.96691459 c 128,-1,4
 158.811252155 704.25582707 158.811252155 704.25582707 191.754572557 710.427718222 c 128,-1,5
 224.697892959 716.599609375 224.697892959 716.599609375 256 716.599609375 c 2,6,-1
 358.400390625 716.599609375 l 2,7,8
 391.057075442 716.599609375 391.057075442 716.599609375 424.485472321 710.363256626 c 128,-1,9
 457.913869199 704.126903876 457.913869199 704.126903876 492.609230804 688.813876187 c 128,-1,10
 527.304592409 673.500848498 527.304592409 673.500848498 553.919128571 650.897959751 c 128,-1,11
 580.533664733 628.295071003 580.533664733 628.295071003 597.467027679 592.244438687 c 128,-1,12
 614.400390625 556.193806371 614.400390625 556.193806371 614.400390625 511.799804688 c 0,13,14
 614.400390625 487.36057437 614.400390625 487.36057437 608.394579799 466.117208152 c 128,-1,15
 602.388768972 444.873841935 602.388768972 444.873841935 595.02273791 431.439595233 c 128,-1,16
 587.656706848 418.005348532 587.656706848 418.005348532 573.946265273 404.431697446 c 128,-1,17
 560.235823699 390.858046361 560.235823699 390.858046361 552.385512794 385.163155708 c 128,-1,18
 544.535201889 379.468265054 544.535201889 379.468265054 529.497950748 370.071707574 c 128,-1,19
 514.460699606 360.675150093 514.460699606 360.675150093 512 359 c 1,20,21
 526.437880848 353.017954317 526.437880848 353.017954317 540.619082029 343.615489099 c 128,-1,22
 554.80028321 334.213023881 554.80028321 334.213023881 573.226743166 316.476719764 c 128,-1,23
 591.653203121 298.740415647 591.653203121 298.740415647 603.026796873 269.576884362 c 128,-1,24
 614.400390625 240.413353078 614.400390625 240.413353078 614.400390625 204.599609375 c 0,25,26
 614.400390625 160.48896103 614.400390625 160.48896103 597.476409575 124.538734387 c 128,-1,27
 580.552428525 88.5885077432 580.552428525 88.5885077432 553.909746675 65.9344921759 c 128,-1,28
 527.267064824 43.2804766087 527.267064824 43.2804766087 492.6186127 27.8732031366 c 128,-1,29
 457.970160576 12.4659296644 457.970160576 12.4659296644 424.476090425 6.13286717595 c 128,-1,30
 390.982020274 -0.2001953125 390.982020274 -0.2001953125 358.400390625 -0.2001953125 c 2,31,-1
 256 -0.2001953125 l 2,32,33
 224.814676927 -0.2001953125 224.814676927 -0.2001953125 191.769170553 6.1231715404 c 128,-1,34
 158.72366418 12.4465383933 158.72366418 12.4465383933 123.853548197 27.8828987721 c 128,-1,35
 88.9834322136 43.3192591509 88.9834322136 43.3192591509 61.8747330534 65.9247965404 c 128,-1,36
 34.7660338932 88.5303339299 34.7660338932 88.5303339299 17.3830169466 124.548430022 c 128,-1,37
 0 160.566526114 0 160.566526114 0 204.599609375 c 1,38,-1
 204.799804688 204.599609375 l 1,39,-1
 204.799804688 153.400390625 l 1,40,-1
 256 102.200195312 l 1,41,-1
 358.400390625 102.200195312 l 1,42,-1
 409.599609375 153.400390625 l 1,43,-1
 409.599609375 255.799804688 l 1,44,-1
 358.400390625 307 l 1,45,-1
 204.799804688 307 l 1,46,-1
 204.799804688 409.400390625 l 1,47,-1
 358.400390625 409.400390625 l 1,48,-1
 409.599609375 460.599609375 l 1,49,-1
 409.599609375 563 l 1,50,-1
 358.400390625 614.200195312 l 1,51,-1
 256 614.200195312 l 1,52,-1
 204.799804688 563 l 1,53,-1
 204.799804688 511.799804688 l 1,54,-1
 0 511.799804688 l 1,0,1
EndSplineSet
EndChar

StartChar: four
Encoding: 52 52 56
Width: 715
Flags: W
LayerCount: 2
Fore
SplineSet
409.599609375 563 m 1,0,-1
 204.799804688 409.400390625 l 1,1,-1
 204.799804688 307 l 1,2,-1
 409.599609375 307 l 1,3,-1
 409.599609375 563 l 1,0,-1
0 204.599609375 m 1,4,-1
 0 409.400390625 l 1,5,-1
 409.599609375 716.599609375 l 1,6,-1
 614.400390625 716.599609375 l 1,7,-1
 614.400390625 -0.2001953125 l 1,8,-1
 409.599609375 -0.2001953125 l 1,9,-1
 409.599609375 204.599609375 l 1,10,-1
 0 204.599609375 l 1,4,-1
EndSplineSet
EndChar

StartChar: five
Encoding: 53 53 57
Width: 715
Flags: W
LayerCount: 2
Fore
SplineSet
0 716.599609375 m 1,0,-1
 614.400390625 716.599609375 l 1,1,-1
 614.400390625 614.200195312 l 1,2,-1
 204.799804688 614.200195312 l 1,3,-1
 204.799804688 511.799804688 l 1,4,-1
 358.400390625 511.799804688 l 2,5,6
 433.280356445 511.799804688 433.280356445 511.799804688 484.480314738 493.986547953 c 128,-1,7
 535.680273031 476.173291219 535.680273031 476.173291219 563.520310872 440.813363546 c 128,-1,8
 591.360348714 405.453435872 591.360348714 405.453435872 602.88036967 361.186712748 c 128,-1,9
 614.400390625 316.919989624 614.400390625 316.919989624 614.400390625 255.799804688 c 128,-1,10
 614.400390625 194.679967651 614.400390625 194.679967651 602.880360175 150.413305562 c 128,-1,11
 591.360329725 106.146643473 591.360329725 106.146643473 563.520320367 70.786615092 c 128,-1,12
 535.680311008 35.4265867106 535.680311008 35.4265867106 484.480305244 17.613195699 c 128,-1,13
 433.280299479 -0.2001953125 433.280299479 -0.2001953125 358.400390625 -0.2001953125 c 2,14,-1
 256 -0.2001953125 l 2,15,16
 137.600219727 -0.2001953125 137.600219727 -0.2001953125 68.8001098633 39.1142603038 c 128,-1,17
 0 78.4287159201 0 78.4287159201 0 153.400390625 c 2,18,-1
 0 204.599609375 l 1,19,-1
 204.799804688 204.599609375 l 1,20,-1
 204.799804688 153.400390625 l 1,21,-1
 256 102.200195312 l 1,22,-1
 358.400390625 102.200195312 l 1,23,-1
 409.599609375 153.400390625 l 1,24,-1
 409.599609375 359 l 1,25,-1
 358.400390625 409.400390625 l 1,26,-1
 0 409.400390625 l 1,27,-1
 0 716.599609375 l 1,0,-1
EndSplineSet
EndChar

StartChar: six
Encoding: 54 54 58
Width: 715
Flags: W
LayerCount: 2
Fore
SplineSet
358.400390625 307 m 1,0,-1
 256 307 l 1,1,-1
 204.799804688 307 l 1,2,-1
 204.799804688 153.400390625 l 1,3,-1
 256 102.200195312 l 1,4,-1
 358.400390625 102.200195312 l 1,5,-1
 409.599609375 153.400390625 l 1,6,-1
 409.599609375 255.799804688 l 1,7,-1
 358.400390625 307 l 1,0,-1
358.400390625 716.599609375 m 2,8,-1
 512 716.599609375 l 1,9,-1
 512 614.200195312 l 1,10,-1
 358.400390625 614.200195312 l 1,11,12
 287.761013635 595.684611868 287.761013635 595.684611868 246.792392956 554.674012431 c 128,-1,13
 205.823772277 513.663412994 205.823772277 513.663412994 204.799804688 460.599609375 c 2,14,-1
 204.799804688 409.400390625 l 1,15,-1
 358.400390625 409.400390625 l 2,16,17
 433.544551043 409.400390625 433.544551043 409.400390625 484.524347171 395.633655659 c 128,-1,18
 535.504143299 381.866920694 535.504143299 381.866920694 563.476278439 353.941814311 c 128,-1,19
 591.44841358 326.016707929 591.44841358 326.016707929 602.924402103 290.383228413 c 128,-1,20
 614.400390625 254.749748898 614.400390625 254.749748898 614.400390625 204.599609375 c 128,-1,21
 614.400390625 154.378522594 614.400390625 154.378522594 602.926980143 118.732724143 c 128,-1,22
 591.453569662 83.0869256926 591.453569662 83.0869256926 563.473700399 55.1825590599 c 128,-1,23
 535.493831135 27.2781924271 535.493831135 27.2781924271 484.526925212 13.5389985573 c 128,-1,24
 433.560019288 -0.2001953125 433.560019288 -0.2001953125 358.400390625 -0.2001953125 c 2,25,-1
 256 -0.2001953125 l 2,26,27
 181.212459085 -0.2001953125 181.212459085 -0.2001953125 129.935480038 14.2264985275 c 128,-1,28
 78.6585009912 28.6531923675 78.6585009912 28.6531923675 50.8646756018 57.0731840897 c 128,-1,29
 23.0708502124 85.4931758118 23.0708502124 85.4931758118 11.5354251062 120.826474113 c 128,-1,30
 0 156.159772415 0 156.159772415 0 204.599609375 c 2,31,-1
 0 409.400390625 l 2,32,33
 0 466.563904313 0 466.563904313 27.5809064593 522.127380455 c 128,-1,34
 55.1618129185 577.690856597 55.1618129185 577.690856597 102.018947056 620.67257682 c 128,-1,35
 148.876081194 663.654297043 148.876081194 663.654297043 216.380955287 690.126953209 c 128,-1,36
 283.885829381 716.599609375 283.885829381 716.599609375 358.400390625 716.599609375 c 2,8,-1
EndSplineSet
EndChar

StartChar: seven
Encoding: 55 55 59
Width: 715
Flags: W
LayerCount: 2
Fore
SplineSet
0 716.599609375 m 1,0,-1
 614.400390625 716.599609375 l 1,1,-1
 614.400390625 614.200195312 l 2,2,3
 614.400390625 569.901802322 614.400390625 569.901802322 603.10549817 534.518375991 c 128,-1,4
 591.810605716 499.13494966 591.810605716 499.13494966 573.748729235 474.796028733 c 128,-1,5
 555.686852754 450.457107806 555.686852754 450.457107806 533.843426377 428.112034883 c 128,-1,6
 512 405.766961961 512 405.766961961 490.156573623 381.201082942 c 128,-1,7
 468.313147246 356.635203923 468.313147246 356.635203923 450.251270765 327.565000444 c 128,-1,8
 432.189394284 298.494796965 432.189394284 298.494796965 420.89450183 253.93847589 c 128,-1,9
 409.599609375 209.382154815 409.599609375 209.382154815 409.599609375 153.400390625 c 2,10,-1
 409.599609375 -0.2001953125 l 1,11,-1
 204.799804688 -0.2001953125 l 1,12,-1
 204.799804688 153.400390625 l 2,13,14
 204.799804688 198.082566034 204.799804688 198.082566034 216.094643284 237.036068634 c 128,-1,15
 227.389481881 275.989571233 227.389481881 275.989571233 245.451272236 304.376496281 c 128,-1,16
 263.513062591 332.763421328 263.513062591 332.763421328 285.356384811 358.370195365 c 128,-1,17
 307.199707031 383.976969401 307.199707031 383.976969401 329.043029251 406.977739903 c 128,-1,18
 350.886351471 429.978510405 350.886351471 429.978510405 368.948141826 452.81351488 c 128,-1,19
 387.009932182 475.648519355 387.009932182 475.648519355 398.304770778 503.838094313 c 128,-1,20
 409.599609375 532.027669271 409.599609375 532.027669271 409.599609375 563 c 2,21,-1
 409.599609375 614.200195312 l 1,22,-1
 204.799804688 614.200195312 l 1,23,-1
 204.799804688 511.799804688 l 1,24,-1
 0 511.799804688 l 1,25,-1
 0 716.599609375 l 1,0,-1
EndSplineSet
EndChar

StartChar: eight
Encoding: 56 56 60
Width: 715
Flags: W
LayerCount: 2
Fore
SplineSet
409.599609375 563 m 1,0,-1
 358.400390625 614.200195312 l 1,1,-1
 256 614.200195312 l 1,2,-1
 204.799804688 563 l 1,3,-1
 204.799804688 460.599609375 l 1,4,-1
 256 409.400390625 l 1,5,-1
 358.400390625 409.400390625 l 1,6,-1
 409.599609375 460.599609375 l 1,7,-1
 409.599609375 563 l 1,0,-1
614.400390625 511.799804688 m 0,8,9
 614.175490028 463.241972209 614.175490028 463.241972209 573.018477271 424.205946579 c 128,-1,10
 531.861464513 385.169920949 531.861464513 385.169920949 463.725585938 356.96484375 c 1,11,12
 536.79394693 328.182789917 536.79394693 328.182789917 575.597168777 293.528013336 c 128,-1,13
 614.400390625 258.873236754 614.400390625 258.873236754 614.400390625 204.599609375 c 0,14,15
 614.400390625 94.8856176259 614.400390625 94.8856176259 547.840249023 47.3427111567 c 128,-1,16
 481.280107422 -0.2001953125 481.280107422 -0.2001953125 358.400390625 -0.2001953125 c 2,17,-1
 256 -0.2001953125 l 2,18,19
 133.120283203 -0.2001953125 133.120283203 -0.2001953125 66.5601416016 47.3427111567 c 128,-1,20
 0 94.8856176259 0 94.8856176259 0 204.599609375 c 0,21,22
 0 258.407687335 0 258.407687335 34.9597772076 293.57014073 c 128,-1,23
 69.9195544151 328.732594125 69.9195544151 328.732594125 138.4453125 356.017578125 c 1,24,25
 0.418740258996 411.948520109 0.418740258996 411.948520109 0 511.799804688 c 0,26,27
 0 622.085783239 0 622.085783239 66.4194547691 669.342696307 c 128,-1,28
 132.838909538 716.599609375 132.838909538 716.599609375 256 716.599609375 c 2,29,-1
 358.400390625 716.599609375 l 2,30,31
 481.561481087 716.599609375 481.561481087 716.599609375 547.980935856 669.342696307 c 128,-1,32
 614.400390625 622.085783239 614.400390625 622.085783239 614.400390625 511.799804688 c 0,8,9
409.599609375 255.799804688 m 1,33,-1
 358.400390625 307 l 1,34,-1
 256 307 l 1,35,-1
 204.799804688 255.799804688 l 1,36,-1
 204.799804688 153.400390625 l 1,37,-1
 256 102.200195312 l 1,38,-1
 358.400390625 102.200195312 l 1,39,-1
 409.599609375 153.400390625 l 1,40,-1
 409.599609375 255.799804688 l 1,33,-1
EndSplineSet
EndChar

StartChar: nine
Encoding: 57 57 61
Width: 715
Flags: W
LayerCount: 2
Fore
SplineSet
256 409.400390625 m 1,0,-1
 358.400390625 409.400390625 l 1,1,-1
 409.599609375 409.400390625 l 1,2,-1
 409.599609375 563 l 1,3,-1
 358.400390625 614.200195312 l 1,4,-1
 256 614.200195312 l 1,5,-1
 204.799804688 563 l 1,6,-1
 204.799804688 460.599609375 l 1,7,-1
 256 409.400390625 l 1,0,-1
256 -0.2001953125 m 2,8,-1
 102.400390625 -0.2001953125 l 1,9,-1
 102.400390625 102.200195312 l 1,10,-1
 256 102.200195312 l 1,11,12
 326.639616616 120.715841566 326.639616616 120.715841566 367.607997438 161.726012 c 128,-1,13
 408.576378259 202.736182434 408.576378259 202.736182434 409.599609375 255.799804688 c 2,14,-1
 409.599609375 307 l 1,15,-1
 256 307 l 2,16,17
 180.855868472 307 180.855868472 307 129.876048269 320.766720724 c 128,-1,18
 78.896228066 334.533441448 78.896228066 334.533441448 50.9241073705 362.458453226 c 128,-1,19
 22.951986675 390.383465004 22.951986675 390.383465004 11.4759933375 426.016751242 c 128,-1,20
 0 461.650037479 0 461.650037479 0 511.799804688 c 128,-1,21
 0 562.021239369 0 562.021239369 11.473397861 597.667098855 c 128,-1,22
 22.946795722 633.312958341 22.946795722 633.312958341 50.926702847 661.217224265 c 128,-1,23
 78.906609972 689.12149019 78.906609972 689.12149019 129.873452793 702.860549783 c 128,-1,24
 180.840295613 716.599609375 180.840295613 716.599609375 256 716.599609375 c 2,25,-1
 358.400390625 716.599609375 l 2,26,27
 461.796074705 716.599609375 461.796074705 716.599609375 516.515913208 696.910909017 c 128,-1,28
 571.23575171 677.222208659 571.23575171 677.222208659 592.818071167 634.555562337 c 128,-1,29
 614.400390625 591.888916016 614.400390625 591.888916016 614.400390625 511.799804688 c 2,30,-1
 614.400390625 307 l 2,31,32
 614.400390625 249.836514938 614.400390625 249.836514938 586.819347459 194.272862353 c 128,-1,33
 559.238304294 138.709209768 559.238304294 138.709209768 512.381076735 95.7273207525 c 128,-1,34
 465.523849176 52.7454317371 465.523849176 52.7454317371 398.019023973 26.2726182123 c 128,-1,35
 330.51419877 -0.2001953125 330.51419877 -0.2001953125 256 -0.2001953125 c 2,8,-1
EndSplineSet
EndChar

StartChar: exclam
Encoding: 33 33 62
Width: 305
Flags: W
LayerCount: 2
Fore
SplineSet
204.799804688 716.599609375 m 1,0,-1
 204.799804688 204.599609375 l 1,1,-1
 0 204.599609375 l 1,2,-1
 0 716.599609375 l 1,3,-1
 204.799804688 716.599609375 l 1,0,-1
0 102.200195312 m 1,4,-1
 204.799804688 102.200195312 l 1,5,-1
 204.799804688 -0.2001953125 l 1,6,-1
 0 -0.2001953125 l 1,7,-1
 0 102.200195312 l 1,4,-1
EndSplineSet
EndChar

StartChar: quotedbl
Encoding: 34 34 63
Width: 612
Flags: W
LayerCount: 2
Fore
SplineSet
204.799804688 716.599609375 m 1,0,-1
 204.799804688 511.799804688 l 1,1,-1
 0 511.799804688 l 1,2,-1
 0 716.599609375 l 1,3,-1
 204.799804688 716.599609375 l 1,0,-1
512 716.599609375 m 1,4,-1
 512 511.799804688 l 1,5,-1
 307.200195312 511.799804688 l 1,6,-1
 307.200195312 716.599609375 l 1,7,-1
 512 716.599609375 l 1,4,-1
EndSplineSet
EndChar

StartChar: quotesingle
Encoding: 39 39 64
Width: 305
Flags: W
LayerCount: 2
Fore
SplineSet
204.799804688 716.599609375 m 1,0,-1
 204.799804688 511.799804688 l 1,1,-1
 0 511.799804688 l 1,2,-1
 0 716.599609375 l 1,3,-1
 204.799804688 716.599609375 l 1,0,-1
EndSplineSet
EndChar

StartChar: period
Encoding: 46 46 65
Width: 305
Flags: W
LayerCount: 2
Fore
SplineSet
204.799804688 204.599609375 m 1,0,-1
 204.799804688 -0.2001953125 l 1,1,-1
 0 -0.2001953125 l 1,2,-1
 0 204.599609375 l 1,3,-1
 204.799804688 204.599609375 l 1,0,-1
EndSplineSet
EndChar

StartChar: numbersign
Encoding: 35 35 66
Width: 817
Flags: W
LayerCount: 2
Fore
SplineSet
409.599609375 409.400390625 m 1,0,-1
 307.200195312 409.400390625 l 1,1,-1
 307.200195312 307 l 1,2,-1
 409.599609375 307 l 1,3,-1
 409.599609375 409.400390625 l 1,0,-1
102.400390625 716.599609375 m 1,4,-1
 307.200195312 716.599609375 l 1,5,-1
 307.200195312 511.799804688 l 1,6,-1
 409.599609375 511.799804688 l 1,7,-1
 409.599609375 716.599609375 l 1,8,-1
 614.400390625 716.599609375 l 1,9,-1
 614.400390625 511.799804688 l 1,10,-1
 716.799804688 511.799804688 l 1,11,-1
 716.799804688 409.400390625 l 1,12,-1
 614.400390625 409.400390625 l 1,13,-1
 614.400390625 307 l 1,14,-1
 716.799804688 307 l 1,15,-1
 716.799804688 204.599609375 l 1,16,-1
 614.400390625 204.599609375 l 1,17,-1
 614.400390625 -0.2001953125 l 1,18,-1
 409.599609375 -0.2001953125 l 1,19,-1
 409.599609375 204.599609375 l 1,20,-1
 307.200195312 204.599609375 l 1,21,-1
 307.200195312 -0.2001953125 l 1,22,-1
 102.400390625 -0.2001953125 l 1,23,-1
 102.400390625 204.599609375 l 1,24,-1
 0 204.599609375 l 1,25,-1
 0 307 l 1,26,-1
 102.400390625 307 l 1,27,-1
 102.400390625 409.400390625 l 1,28,-1
 0 409.400390625 l 1,29,-1
 0 511.799804688 l 1,30,-1
 102.400390625 511.799804688 l 1,31,-1
 102.400390625 716.599609375 l 1,4,-1
EndSplineSet
EndChar

StartChar: comma
Encoding: 44 44 67
Width: 408
Flags: W
LayerCount: 2
Fore
SplineSet
307.200195312 204.599609375 m 1,0,-1
 307.200195312 102.200195312 l 2,1,2
 307.200195312 53.4381466127 307.200195312 53.4381466127 264.533387587 4.67626842401 c 128,-1,3
 221.866579861 -44.0856097647 221.866579861 -44.0856097647 162.13327908 -73.3426095698 c 128,-1,4
 102.399978299 -102.599609375 102.399978299 -102.599609375 51.2001953125 -102.599609375 c 2,5,-1
 0 -102.599609375 l 1,6,-1
 0 -0.2001953125 l 1,7,8
 37.7000325521 -0.2001953125 37.7000325521 -0.2001953125 70.0502115885 31.8991675916 c 128,-1,9
 102.400390625 63.9985304957 102.400390625 63.9985304957 102.400390625 102.200195312 c 2,10,-1
 102.400390625 204.599609375 l 1,11,-1
 307.200195312 204.599609375 l 1,0,-1
EndSplineSet
EndChar

StartChar: dollar
Encoding: 36 36 68
Width: 715
Flags: W
LayerCount: 2
Fore
SplineSet
153.599609375 614.200195312 m 2,0,-1
 204.799804688 614.200195312 l 1,1,-1
 204.799804688 716.599609375 l 1,2,-1
 409.599609375 716.599609375 l 1,3,-1
 409.599609375 614.200195312 l 1,4,-1
 614.400390625 614.200195312 l 1,5,-1
 614.400390625 511.799804688 l 1,6,-1
 256 511.799804688 l 1,7,-1
 204.799804688 483.495117188 l 1,8,-1
 204.799804688 437.599609375 l 1,9,-1
 256 409.400390625 l 1,10,-1
 460.799804688 409.400390625 l 2,11,12
 502.944189601 409.344523934 502.944189601 409.344523934 536.032744739 392.358480015 c 128,-1,13
 569.121299876 375.372436097 569.121299876 375.372436097 586.188038106 348.25721844 c 128,-1,14
 603.254776336 321.142000784 603.254776336 321.142000784 611.26568479 288.36648612 c 128,-1,15
 619.276593244 255.590971456 619.276593244 255.590971456 611.26568479 222.836618951 c 128,-1,16
 603.254776336 190.082266445 603.254776336 190.082266445 586.188038106 163.012133441 c 128,-1,17
 569.121299876 135.942000437 569.121299876 135.942000437 536.032744739 119.043365488 c 128,-1,18
 502.944189601 102.14473054 502.944189601 102.14473054 460.799804688 102.200195312 c 2,19,-1
 409.599609375 102.200195312 l 1,20,-1
 409.599609375 0 l 1,21,-1
 204.799804688 1 l 1,22,-1
 204.799804688 102.200195312 l 1,23,-1
 0 102.200195312 l 1,24,-1
 0 204.599609375 l 1,25,-1
 358.400390625 204.599609375 l 1,26,-1
 409.599609375 232.13671875 l 1,27,-1
 409.599609375 276.341796875 l 1,28,-1
 358.400390625 307 l 1,29,-1
 153.599609375 307 l 2,30,31
 111.361912747 307.165182535 111.361912747 307.165182535 78.2464059534 324.236392058 c 128,-1,32
 45.1308991598 341.307601581 45.1308991598 341.307601581 28.0901920787 368.466211919 c 128,-1,33
 11.0494849976 395.624822256 11.0494849976 395.624822256 3.08654580395 428.420207884 c 128,-1,34
 -4.87639338974 461.215593511 -4.87639338974 461.215593511 3.18234769095 493.948753373 c 128,-1,35
 11.2410887716 526.681913235 11.2410887716 526.681913235 28.3337556254 553.707955014 c 128,-1,36
 45.4264224791 580.733996792 45.4264224791 580.733996792 78.4876501691 597.548186226 c 128,-1,37
 111.548877859 614.36237566 111.548877859 614.36237566 153.599609375 614.200195312 c 2,0,-1
EndSplineSet
EndChar

StartChar: percent
Encoding: 37 37 69
Width: 817
Flags: W
LayerCount: 2
Fore
SplineSet
716.799804688 204.599609375 m 1,0,-1
 716.799804688 -0.2001953125 l 1,1,-1
 512 -0.2001953125 l 1,2,-1
 512 204.599609375 l 1,3,-1
 716.799804688 204.599609375 l 1,0,-1
0 716.599609375 m 1,4,-1
 204.799804688 716.599609375 l 1,5,-1
 204.799804688 511.799804688 l 1,6,-1
 0 511.799804688 l 1,7,-1
 0 716.599609375 l 1,4,-1
0 -0.2001953125 m 1,8,-1
 0 102.200195312 l 1,9,-1
 563.200195312 716.599609375 l 1,10,-1
 716.799804688 716.599609375 l 1,11,-1
 716.799804688 614.200195312 l 1,12,-1
 153.599609375 -0.2001953125 l 1,13,-1
 0 -0.2001953125 l 1,8,-1
EndSplineSet
EndChar

StartChar: asciitilde
Encoding: 126 126 70
Width: 817
Flags: W
LayerCount: 2
Fore
SplineSet
0 614.200195312 m 1,0,1
 24.6649730461 639.346904276 24.6649730461 639.346904276 40.4049260673 653.150667111 c 128,-1,2
 56.1448790885 666.954429946 56.1448790885 666.954429946 81.9954035226 684.046369632 c 128,-1,3
 107.845927957 701.138309319 107.845927957 701.138309319 138.004901653 708.868959347 c 128,-1,4
 168.16387535 716.599609375 168.16387535 716.599609375 204.799804688 716.599609375 c 0,5,6
 362.155679699 712.91766691 362.155679699 712.91766691 409.599609375 666.400390625 c 0,7,8
 436.587696948 638.885193977 436.587696948 638.885193977 463.053108976 633.111087286 c 128,-1,9
 489.518521003 627.336980595 489.518521003 627.336980595 526.813427483 646.822506464 c 128,-1,10
 564.108333962 666.308032332 564.108333962 666.308032332 614.400390625 716.599609375 c 1,11,-1
 716.799804688 716.599609375 l 1,12,-1
 716.799804688 614.200195312 l 1,13,14
 691.199249241 588.599639866 691.199249241 588.599639866 676.228296185 575.533304846 c 128,-1,15
 661.257343128 562.466969825 661.257343128 562.466969825 634.97148714 544.866673792 c 128,-1,16
 608.685631153 527.266377758 608.685631153 527.266377758 578.628595257 519.533091223 c 128,-1,17
 548.571559361 511.799804688 548.571559361 511.799804688 512 511.799804688 c 0,18,19
 358.400390625 511.799804688 358.400390625 511.799804688 307.200195312 563 c 0,20,21
 280.1778734 590.022321913 280.1778734 590.022321913 253.748181473 595.592718713 c 128,-1,22
 227.318489546 601.163115513 227.318489546 601.163115513 189.985216965 581.607476599 c 128,-1,23
 152.651944384 562.051837686 152.651944384 562.051837686 102.400390625 511.799804688 c 1,24,-1
 0 511.799804688 l 1,25,-1
 0 614.200195312 l 1,0,1
EndSplineSet
EndChar

StartChar: asciicircum
Encoding: 94 94 71
Width: 715
Flags: W
LayerCount: 2
Fore
SplineSet
0 563 m 1,0,-1
 256 819 l 1,1,-1
 358.400390625 819 l 1,2,-1
 614.400390625 563 l 1,3,-1
 614.400390625 511.799804688 l 1,4,-1
 460.799804688 511.799804688 l 1,5,-1
 307.200195312 666.400390625 l 1,6,-1
 153.599609375 511.799804688 l 1,7,-1
 0 511.799804688 l 1,8,-1
 0 563 l 1,0,-1
EndSplineSet
EndChar

StartChar: hyphen
Encoding: 45 45 72
Width: 715
Flags: W
LayerCount: 2
Fore
SplineSet
0 409.400390625 m 1,0,-1
 614.400390625 409.400390625 l 1,1,-1
 614.400390625 307.892578125 l 1,2,-1
 0 307 l 1,3,-1
 0 409.400390625 l 1,0,-1
EndSplineSet
EndChar

StartChar: braceleft
Encoding: 123 123 73
Width: 817
Flags: W
LayerCount: 2
Fore
SplineSet
0 307 m 1,0,-1
 0 409.400390625 l 1,1,-1
 130.599609375 409.400390625 l 2,2,3
 146.738005995 409.373320727 146.738005995 409.373320727 161.22153907 425.535497447 c 128,-1,4
 175.705072145 441.697674167 175.705072145 441.697674167 181.799804688 460.599609375 c 0,5,6
 192.129882812 491.481185883 192.129882812 491.481185883 192.129882812 535.721679688 c 0,7,8
 192.129882812 608.073242188 192.129882812 608.073242188 205.603515625 636.603515625 c 0,9,10
 208.159253458 642.015077926 208.159253458 642.015077926 213.789886084 647.322472738 c 128,-1,11
 219.42051871 652.62986755 219.42051871 652.62986755 228.415231103 657.882535075 c 128,-1,12
 237.409943497 663.1352026 237.409943497 663.1352026 244.027464209 666.566332113 c 128,-1,13
 250.644984921 669.997461626 250.644984921 669.997461626 262.126012353 675.336472575 c 128,-1,14
 273.607039786 680.675483523 273.607039786 680.675483523 277.258789062 682.475585938 c 0,15,16
 312.439941406 699.817871094 312.439941406 699.817871094 379.80859375 709.88671875 c 0,17,18
 425.469238281 716.600097656 425.469238281 716.600097656 523.52734375 716.599609375 c 2,19,-1
 716.799804688 716.599609375 l 1,20,-1
 716.799804688 614.200195312 l 1,21,22
 480.110323643 614.200195312 480.110323643 614.200195312 456.533203125 609.538085938 c 128,-1,23
 432.955078125 604.876953125 432.955078125 604.876953125 421.7265625 595.366210938 c 128,-1,24
 410.498535156 585.856445312 410.498535156 585.856445312 410.498046875 562.733398438 c 0,25,26
 410.498046875 552.499637107 410.498046875 552.499637107 403.76171875 486.866210938 c 0,27,28
 400.019042969 449.944824219 400.019042969 449.944824219 384.299804688 427.008789062 c 1,29,30
 326.918007212 365.60826355 326.918007212 365.60826355 307.200195312 359 c 1,31,32
 311.806497565 355.452453104 311.806497565 355.452453104 327.367976396 344.011932546 c 128,-1,33
 342.929455226 332.571411987 342.929455226 332.571411987 349.643498214 327.027282542 c 128,-1,34
 356.357541202 321.483153097 356.357541202 321.483153097 366.946589677 310.360016042 c 128,-1,35
 377.535638152 299.236878987 377.535638152 299.236878987 385.047851562 287.340820312 c 0,36,37
 400.018554688 263.099121094 400.018554688 263.099121094 404.509765625 222.448242188 c 0,38,39
 409.75 160.533781637 409.75 160.533781637 409.75 156.27734375 c 0,40,41
 409.75 131.662109375 409.75 131.662109375 421.7265625 121.965820312 c 128,-1,42
 433.703125 112.270019531 433.703125 112.270019531 458.030273438 107.234375 c 128,-1,43
 482.356039003 102.200195312 482.356039003 102.200195312 716.799804688 102.200195312 c 1,44,-1
 716.799804688 -0.2001953125 l 1,45,-1
 523.52734375 -0.2001953125 l 2,46,47
 422.475097656 -0.2001953125 422.475097656 -0.2001953125 368.580078125 7.818359375 c 0,48,49
 304.821965992 17.3044407464 304.821965992 17.3044407464 278.6328125 30.4833984375 c 0,50,51
 276.831127414 31.3901172018 276.831127414 31.3901172018 270.05941082 34.7602526092 c 128,-1,52
 263.287694227 38.1303880166 263.287694227 38.1303880166 260.314588504 39.6607422789 c 128,-1,53
 257.341482782 41.1910965413 257.341482782 41.1910965413 250.820063255 44.5886160565 c 128,-1,54
 244.298643728 47.9861355718 244.298643728 47.9861355718 240.762250649 50.1194667731 c 128,-1,55
 237.225857569 52.2527979745 237.225857569 52.2527979745 231.71188853 55.5789200903 c 128,-1,56
 226.197919491 58.9050422062 226.197919491 58.9050422062 222.855392474 61.5425688393 c 128,-1,57
 219.512865457 64.1800954724 219.512865457 64.1800954724 215.763500327 67.3360386817 c 128,-1,58
 212.014135196 70.491981891 212.014135196 70.491981891 209.622627663 73.5349224487 c 128,-1,59
 207.231120131 76.5778630064 207.231120131 76.5778630064 205.854492188 79.54296875 c 0,60,61
 192.129882812 109.106096484 192.129882812 109.106096484 192.129882812 166.87890625 c 0,62,63
 192.129882812 233.18817262 192.129882812 233.18817262 181.799804688 255.799804688 c 0,64,65
 176.222032267 276.210593106 176.222032267 276.210593106 161.89435227 291.605296553 c 128,-1,66
 147.566672274 307 147.566672274 307 130.599609375 307 c 2,67,-1
 0 307 l 1,0,-1
EndSplineSet
EndChar

StartChar: braceright
Encoding: 125 125 74
Width: 817
Flags: W
LayerCount: 2
Fore
SplineSet
716.799804688 307 m 1,0,-1
 586.200195312 307 l 2,1,2
 569.233132414 307 569.233132414 307 554.905452417 291.605296553 c 128,-1,3
 540.57777242 276.210593106 540.57777242 276.210593106 535 255.799804688 c 0,4,5
 524.669921875 233.18817262 524.669921875 233.18817262 524.669921875 166.87890625 c 0,6,7
 524.669921875 109.106096484 524.669921875 109.106096484 510.9453125 79.54296875 c 0,8,9
 509.56884353 76.577864129 509.56884353 76.577864129 507.177350553 73.5348804653 c 128,-1,10
 504.785857576 70.4918968017 504.785857576 70.4918968017 501.036781874 67.3360806651 c 128,-1,11
 497.287706172 64.1802645285 497.287706172 64.1802645285 493.944762568 61.5425268559 c 128,-1,12
 490.601818964 58.9047891834 490.601818964 58.9047891834 485.088401709 55.5789620737 c 128,-1,13
 479.574984453 52.2531349639 479.574984453 52.2531349639 476.037791868 50.1194247898 c 128,-1,14
 472.500599283 47.9857146156 472.500599283 47.9857146156 465.980042119 44.5886580399 c 128,-1,15
 459.459484955 41.1916014641 459.459484955 41.1916014641 456.485245036 39.6607002956 c 128,-1,16
 453.511005116 38.129799127 453.511005116 38.129799127 446.74050969 34.7602945925 c 128,-1,17
 439.970014265 31.390790058 439.970014265 31.390790058 438.166992188 30.4833984375 c 0,18,19
 411.979308627 17.3046594462 411.979308627 17.3046594462 348.219726562 7.818359375 c 0,20,21
 294.325195312 -0.2001953125 294.325195312 -0.2001953125 193.272460938 -0.2001953125 c 2,22,-1
 0 -0.2001953125 l 1,23,-1
 0 102.200195312 l 1,24,25
 234.445230386 102.200195312 234.445230386 102.200195312 258.76953125 107.234375 c 128,-1,26
 283.09765625 112.269042969 283.09765625 112.269042969 295.073242188 121.965820312 c 128,-1,27
 307.049804688 131.663085938 307.049804688 131.663085938 307.049804688 156.27734375 c 0,28,29
 307.049804688 160.533781637 307.049804688 160.533781637 312.290039062 222.448242188 c 0,30,31
 316.78125 263.099121094 316.78125 263.099121094 331.751953125 287.340820312 c 0,32,33
 339.264521233 299.236895681 339.264521233 299.236895681 349.853768466 310.360129253 c 128,-1,34
 360.443015698 321.483362826 360.443015698 321.483362826 367.156531217 327.027169331 c 128,-1,35
 373.870046736 332.570975835 373.870046736 332.570975835 389.432107089 344.012045757 c 128,-1,36
 404.994167441 355.453115679 404.994167441 355.453115679 409.599609375 359 c 1,37,38
 389.883219391 365.607787007 389.883219391 365.607787007 332.500976562 427.008789062 c 1,39,40
 316.781738281 449.943847656 316.781738281 449.943847656 313.0390625 486.866210938 c 0,41,42
 306.301757812 552.509151956 306.301757812 552.509151956 306.301757812 562.733398438 c 0,43,44
 306.301757812 585.855957031 306.301757812 585.855957031 295.073242188 595.366210938 c 128,-1,45
 283.845214844 604.875976562 283.845214844 604.875976562 260.266601562 609.538085938 c 128,-1,46
 236.690945735 614.200195312 236.690945735 614.200195312 0 614.200195312 c 1,47,-1
 0 716.599609375 l 1,48,-1
 193.272460938 716.599609375 l 2,49,50
 291.330566406 716.599609375 291.330566406 716.599609375 336.9921875 709.88671875 c 0,51,52
 404.360351562 699.817382812 404.360351562 699.817382812 439.541992188 682.475585938 c 0,53,54
 443.193150351 680.675774908 443.193150351 680.675774908 454.674594664 675.336508485 c 128,-1,55
 466.156038977 669.997242062 466.156038977 669.997242062 472.773045961 666.566296203 c 128,-1,56
 479.390052946 663.135350344 479.390052946 663.135350344 488.384844664 657.882570985 c 128,-1,57
 497.379636381 652.629791626 497.379636381 652.629791626 503.010092836 647.322436828 c 128,-1,58
 508.640549291 642.015082029 508.640549291 642.015082029 511.196289062 636.603515625 c 0,59,60
 524.669921875 608.072753906 524.669921875 608.072753906 524.669921875 535.721679688 c 0,61,62
 524.669921875 491.481185883 524.669921875 491.481185883 535 460.599609375 c 0,63,64
 541.094732542 441.697674167 541.094732542 441.697674167 555.578265617 425.535497447 c 128,-1,65
 570.061798693 409.373320727 570.061798693 409.373320727 586.200195312 409.400390625 c 2,66,-1
 716.799804688 409.400390625 l 1,67,-1
 716.799804688 307 l 1,0,-1
EndSplineSet
EndChar

StartChar: bar
Encoding: 124 124 75
Width: 305
Flags: W
LayerCount: 2
Fore
SplineSet
204.799804688 307 m 1,0,-1
 204.799804688 -0.2001953125 l 1,1,-1
 0 -0.2001953125 l 1,2,-1
 0 307 l 1,3,-1
 204.799804688 307 l 1,0,-1
0 716.599609375 m 1,4,-1
 204.799804688 716.599609375 l 1,5,-1
 204.799804688 409.400390625 l 1,6,-1
 0 409.400390625 l 1,7,-1
 0 716.599609375 l 1,4,-1
EndSplineSet
EndChar

StartChar: uni0018
Encoding: 24 24 76
Width: 715
Flags: W
LayerCount: 2
Fore
SplineSet
0 459.997070312 m 1,0,1
 309.233644091 973.250754335 309.233644091 973.250754335 614.400390625 459.797851562 c 1,2,-1
 614.400390625 408.59765625 l 1,3,-1
 409.599609375 409.397460938 l 1,4,-1
 409.599609375 -0.2001953125 l 1,5,-1
 204.799804688 -0.2021484375 l 1,6,-1
 204.799804688 409.3984375 l 1,7,-1
 -0 408.59765625 l 1,8,-1
 0 459.997070312 l 1,0,1
EndSplineSet
EndChar

StartChar: uni0019
Encoding: 25 25 77
Width: 715
Flags: W
LayerCount: 2
Fore
SplineSet
0 256.400390625 m 1,0,-1
 0 307.799804688 l 1,1,-1
 204.799804688 307 l 1,2,-1
 204.799804688 716.599609375 l 1,3,-1
 409.599609375 716.599609375 l 1,4,-1
 409.599609375 307 l 1,5,-1
 614.400390625 307.799804688 l 1,6,-1
 614.400390625 256.599609375 l 1,7,8
 309.233644091 -256.853293398 309.233644091 -256.853293398 0 256.400390625 c 1,0,-1
EndSplineSet
EndChar

StartChar: slash
Encoding: 47 47 78
Width: 817
Flags: W
LayerCount: 2
Fore
SplineSet
102.400390625 -0.2001953125 m 1,0,-1
 0 -0.2001953125 l 1,1,-1
 0 153.400390625 l 1,2,-1
 563.200195312 716.599609375 l 1,3,-1
 716.799804688 716.599609375 l 1,4,-1
 716.799804688 614.200195312 l 1,5,-1
 102.400390625 -0.2001953125 l 1,0,-1
EndSplineSet
EndChar

StartChar: ampersand
Encoding: 38 38 79
Width: 817
Flags: W
LayerCount: 2
Fore
SplineSet
716.799804688 102.200195312 m 1,0,-1
 716.799804688 0.134765625 l 1,1,-1
 614.400390625 -0.2001953125 l 1,2,3
 599.611192598 6.17059256136 599.611192598 6.17059256136 587.496352973 12.6712611262 c 128,-1,4
 575.381513349 19.171929691 575.381513349 19.171929691 562.952162652 28.1404732488 c 128,-1,5
 550.522811955 37.1090168067 550.522811955 37.1090168067 543.832134223 42.3299955012 c 128,-1,6
 537.141456492 47.5509741957 537.141456492 47.5509741957 521.849428277 60.5278013738 c 128,-1,7
 506.557400061 73.504628552 506.557400061 73.504628552 500.068359375 78.8564453125 c 1,8,9
 453.021972656 41.3696289062 453.021972656 41.3696289062 400.16015625 23.5634765625 c 0,10,11
 329.494136287 -0.2392578125 329.494136287 -0.2392578125 274.350585938 -0.2392578125 c 0,12,13
 135.572691016 -0.2392578125 135.572691016 -0.2392578125 56.5615234375 77.919921875 c 0,14,15
 -0.00048828125 133.680664062 -0.00048828125 133.680664062 0 206.311523438 c 0,16,17
 0 272.381835938 0 272.381835938 44.4033203125 325.09765625 c 128,-1,18
 88.8071289062 377.812988281 88.8071289062 377.812988281 177.0859375 416.706054688 c 1,19,20
 137.439941406 458.41015625 137.439941406 458.41015625 117.352539062 496.130859375 c 128,-1,21
 97.2651367188 533.852050781 97.2651367188 533.852050781 97.2646484375 567.58984375 c 0,22,23
 97.2646484375 629.911621094 97.2646484375 629.911621094 153.5625 673.255859375 c 128,-1,24
 209.859375 716.600585938 209.859375 716.600585938 313.99609375 716.599609375 c 0,25,26
 414.433105469 716.599609375 414.433105469 716.599609375 470.995117188 671.147460938 c 128,-1,27
 527.555664062 625.694824219 527.555664062 625.694824219 527.556640625 560.092773438 c 0,28,29
 527.556640625 518.388671875 527.556640625 518.388671875 499.540039062 480.90234375 c 128,-1,30
 471.5234375 443.415527344 471.5234375 443.415527344 386.416992188 396.088867188 c 1,31,-1
 494.25390625 270.0390625 l 1,32,33
 507.667269703 291.177680772 507.667269703 291.177680772 527.02734375 359.166992188 c 1,34,-1
 665.599609375 359 l 1,35,-1
 665.234375 307.024414062 l 1,36,37
 659.269868147 288.240980208 659.269868147 288.240980208 652.167621804 273.792005687 c 128,-1,38
 645.065375461 259.343031165 645.065375461 259.343031165 637.124370383 246.70278598 c 128,-1,39
 629.183365305 234.062540796 629.183365305 234.062540796 626.407226562 228.569335938 c 0,40,41
 611.606445312 199.282714844 611.606445312 199.282714844 594.690429688 179.602539062 c 1,42,43
 619.535644531 158.984863281 619.535644531 158.984863281 658.916992188 134.383789062 c 0,44,45
 696.323662053 111.016447383 696.323662053 111.016447383 716.799804688 102.200195312 c 1,0,-1
312.41015625 475.279296875 m 1,46,-1
 352.584960938 502.45703125 l 2,47,48
 396.989257812 532.915862277 396.989257812 532.915862277 396.989257812 562.904296875 c 0,49,50
 396.989257812 588.208007812 396.989257812 588.208007812 375.580078125 606.013671875 c 128,-1,51
 354.171386719 623.8203125 354.171386719 623.8203125 317.696289062 623.8203125 c 0,52,53
 282.279296875 623.8203125 282.279296875 623.8203125 262.192382812 608.123046875 c 128,-1,54
 242.104980469 592.424316406 242.104980469 592.424316406 242.10546875 571.807617188 c 0,55,56
 242.10546875 547.44140625 242.10546875 547.44140625 275.936523438 512.765625 c 2,57,-1
 312.41015625 475.279296875 l 1,46,-1
254.262695312 332.361328125 m 1,58,59
 202.987304688 309.399902344 202.987304688 309.399902344 177.614257812 277.068359375 c 128,-1,60
 152.240234375 244.734863281 152.240234375 244.734863281 152.240234375 210.998046875 c 0,61,62
 152.240234375 168.356445312 152.240234375 168.356445312 183.693359375 141.413085938 c 128,-1,63
 215.145019531 114.46875 215.145019531 114.46875 268.006835938 114.469726562 c 0,64,65
 302.895019531 114.469726562 302.895019531 114.469726562 335.140625 126.65234375 c 128,-1,66
 367.386230469 138.835449219 367.386230469 138.835449219 405.446289062 166.950195312 c 1,67,-1
 254.262695312 332.361328125 l 1,58,59
EndSplineSet
EndChar

StartChar: parenleft
Encoding: 40 40 80
Width: 510
Flags: W
LayerCount: 2
Fore
SplineSet
358.400390625 716.599609375 m 2,0,-1
 409.599609375 716.599609375 l 1,1,-1
 409.599609375 614.200195312 l 2,2,3
 407.297303327 613.5706549 407.297303327 613.5706549 402.693853615 612.316743675 c 0,4,5
 380.488435782 606.268318164 380.488435782 606.268318164 369.21606813 602.955766023 c 128,-1,6
 357.943700478 599.643213882 357.943700478 599.643213882 337.713166002 592.397204637 c 128,-1,7
 317.482631525 585.151195392 317.482631525 585.151195392 306.58126897 578.782842542 c 128,-1,8
 295.679906415 572.414489692 295.679906415 572.414489692 279.340302255 561.178858332 c 128,-1,9
 263.000698095 549.943226971 263.000698095 549.943226971 254.044800698 537.665408659 c 128,-1,10
 245.088903301 525.387590347 245.088903301 525.387590347 234.214689518 507.308672117 c 128,-1,11
 223.340475735 489.229753887 223.340475735 489.229753887 217.904503557 468.188805359 c 128,-1,12
 212.468531379 447.147856831 212.468531379 447.147856831 208.634168033 419.371986979 c 128,-1,13
 204.799804688 391.596117126 204.799804688 391.596117126 204.799804688 359 c 0,14,15
 204.799804688 325.404426526 204.799804688 325.404426526 208.769367373 296.82250844 c 128,-1,16
 212.738930058 268.240590355 212.738930058 268.240590355 218.529062893 246.600005545 c 128,-1,17
 224.319195729 224.959420735 224.319195729 224.959420735 235.458048893 206.555956443 c 128,-1,18
 246.596902057 188.152492151 246.596902057 188.152492151 256.174124622 175.577843336 c 128,-1,19
 265.751347186 163.003194522 265.751347186 163.003194522 282.373871617 151.84486355 c 128,-1,20
 298.996396047 140.686532578 298.996396047 140.686532578 310.675089128 134.244499286 c 128,-1,21
 322.353782209 127.802465995 322.353782209 127.802465995 342.774358692 120.955947869 c 128,-1,22
 363.194935176 114.109429744 363.194935176 114.109429744 375.28947956 110.866691502 c 128,-1,23
 387.384023944 107.623953259 387.384023944 107.623953259 409.599609375 102.200195312 c 1,24,-1
 409.599609375 -0.2001953125 l 1,25,-1
 358.400390625 -0.2001953125 l 2,26,27
 204.740083792 -0.2001953125 204.740083792 -0.2001953125 102.370041896 102.329955978 c 128,-1,28
 0 204.860107269 0 204.860107269 0 359 c 0,29,30
 0 512.060058441 0 512.060058441 102.429978604 614.329833908 c 128,-1,31
 204.859957209 716.599609375 204.859957209 716.599609375 358.400390625 716.599609375 c 2,0,-1
EndSplineSet
EndChar

StartChar: parenright
Encoding: 41 41 81
Width: 510
Flags: W
LayerCount: 2
Fore
SplineSet
51.2001953125 716.599609375 m 2,0,1
 204.739969664 716.599609375 204.739969664 716.599609375 307.169789519 614.329797344 c 128,-1,2
 409.599609375 512.059985313 409.599609375 512.059985313 409.599609375 359 c 0,3,4
 409.599609375 204.860180626 409.599609375 204.860180626 307.229726113 102.329992657 c 128,-1,5
 204.859842852 -0.2001953125 204.859842852 -0.2001953125 51.2001953125 -0.2001953125 c 2,6,-1
 0 -0.2001953125 l 1,7,-1
 0 102.200195312 l 1,8,9
 22.2155790443 107.623899975 22.2155790443 107.623899975 34.3103765705 110.866688864 c 128,-1,10
 46.4051740967 114.109477753 46.4051740967 114.109477753 66.8256549688 120.955950507 c 128,-1,11
 87.2461358409 127.802423261 87.2461358409 127.802423261 98.9249438288 134.244496649 c 128,-1,12
 110.603751817 140.686570037 110.603751817 140.686570037 127.226150082 151.844866188 c 128,-1,13
 143.848548347 163.003162339 143.848548347 163.003162339 153.425795809 175.577840699 c 128,-1,14
 163.003043271 188.152519059 163.003043271 188.152519059 174.141787942 206.55595908 c 128,-1,15
 185.280532613 224.959399101 185.280532613 224.959399101 191.070648561 246.600002907 c 128,-1,16
 196.860764509 268.240606713 196.860764509 268.240606713 200.830284598 296.822511078 c 128,-1,17
 204.799804688 325.404415443 204.799804688 325.404415443 204.799804688 359 c 0,18,19
 204.799804688 391.596205409 204.799804688 391.596205409 200.965452671 419.372119949 c 128,-1,20
 197.131100655 447.148034488 197.131100655 447.148034488 191.695153823 468.189018089 c 128,-1,21
 186.25920699 489.23000169 186.25920699 489.23000169 175.384993705 507.308924783 c 128,-1,22
 164.51078042 525.387847877 164.51078042 525.387847877 155.554902952 537.665668493 c 128,-1,23
 146.599025485 549.94348911 146.599025485 549.94348911 130.259377457 561.179106375 c 128,-1,24
 113.91972943 572.41472364 113.91972943 572.41472364 103.018347855 578.78306689 c 128,-1,25
 92.1169662797 585.15141014 92.1169662797 585.15141014 71.8863100366 592.397407194 c 128,-1,26
 51.6556537935 599.643404248 51.6556537935 599.643404248 40.3831946374 602.955955749 c 128,-1,27
 29.1107354813 606.26850725 29.1107354813 606.26850725 6.9050872208 612.316942918 c 0,28,29
 2.30208405436 613.570721605 2.30208405436 613.570721605 0 614.200195312 c 2,30,-1
 0 716.599609375 l 1,31,-1
 51.2001953125 716.599609375 l 2,0,1
EndSplineSet
EndChar

StartChar: asterisk
Encoding: 42 42 82
Width: 715
Flags: W
LayerCount: 2
Fore
SplineSet
0 307 m 1,0,-1
 0 408 l 1,1,-1
 204.799804688 409.400390625 l 1,2,-1
 102.400390625 563 l 1,3,-1
 204.799804688 614.200195312 l 1,4,-1
 307.200195312 460.599609375 l 1,5,-1
 409.599609375 614.200195312 l 1,6,-1
 512 563 l 1,7,-1
 409.599609375 409.400390625 l 1,8,-1
 614.400390625 409 l 1,9,-1
 614.400390625 305.799804688 l 1,10,-1
 409.599609375 307 l 1,11,-1
 512 153.400390625 l 1,12,-1
 409.599609375 102.200195312 l 1,13,-1
 307.200195312 255.799804688 l 1,14,-1
 204.799804688 102.200195312 l 1,15,-1
 102.400390625 153.400390625 l 1,16,-1
 204.799804688 307 l 1,17,-1
 0 307 l 1,0,-1
EndSplineSet
EndChar

StartChar: plus
Encoding: 43 43 83
Width: 715
Flags: W
LayerCount: 2
Fore
SplineSet
204.799804688 614.200195312 m 1,0,-1
 409.599609375 614.200195312 l 1,1,-1
 409.599609375 409.400390625 l 1,2,-1
 614.400390625 409.400390625 l 1,3,-1
 614.400390625 307 l 1,4,-1
 409.599609375 307 l 1,5,-1
 409.599609375 102.200195312 l 1,6,-1
 204.799804688 102.200195312 l 1,7,-1
 204.799804688 307 l 1,8,-1
 0 307 l 1,9,-1
 0 409.400390625 l 1,10,-1
 204.799804688 409.400390625 l 1,11,-1
 204.799804688 614.200195312 l 1,0,-1
EndSplineSet
EndChar

StartChar: colon
Encoding: 58 58 84
Width: 305
Flags: W
LayerCount: 2
Fore
SplineSet
0 614.200195312 m 1,0,-1
 204.799804688 614.200195312 l 1,1,-1
 204.799804688 409.400390625 l 1,2,-1
 0 409.400390625 l 1,3,-1
 0 614.200195312 l 1,0,-1
204.799804688 204.599609375 m 1,4,-1
 204.799804688 -0.2001953125 l 1,5,-1
 0 -0.2001953125 l 1,6,-1
 0 204.599609375 l 1,7,-1
 204.799804688 204.599609375 l 1,4,-1
EndSplineSet
EndChar

StartChar: semicolon
Encoding: 59 59 85
Width: 408
Flags: W
LayerCount: 2
Fore
SplineSet
102.400390625 614.200195312 m 1,0,-1
 307.200195312 614.200195312 l 1,1,-1
 307.200195312 409.400390625 l 1,2,-1
 102.400390625 409.400390625 l 1,3,-1
 102.400390625 614.200195312 l 1,0,-1
307.200195312 204.599609375 m 1,4,-1
 307.200195312 102.200195312 l 2,5,6
 307.200195312 53.4381466127 307.200195312 53.4381466127 264.533387587 4.67626842401 c 128,-1,7
 221.866579861 -44.0856097647 221.866579861 -44.0856097647 162.13327908 -73.3426095698 c 128,-1,8
 102.399978299 -102.599609375 102.399978299 -102.599609375 51.2001953125 -102.599609375 c 2,9,-1
 0 -102.599609375 l 1,10,-1
 0 -0.2001953125 l 1,11,12
 37.7000325521 -0.2001953125 37.7000325521 -0.2001953125 70.0502115885 31.8991675916 c 128,-1,13
 102.400390625 63.9985304957 102.400390625 63.9985304957 102.400390625 102.200195312 c 2,14,-1
 102.400390625 204.599609375 l 1,15,-1
 307.200195312 204.599609375 l 1,4,-1
EndSplineSet
EndChar

StartChar: less
Encoding: 60 60 86
Width: 612
Flags: W
LayerCount: 2
Fore
SplineSet
307.200195312 716.599609375 m 1,0,-1
 512 716.599609375 l 1,1,-1
 512 666.400390625 l 1,2,-1
 212 359 l 1,3,-1
 512 51 l 1,4,-1
 512 -0.2001953125 l 1,5,-1
 307.200195312 -0.2001953125 l 1,6,-1
 0 307 l 1,7,-1
 0 409.400390625 l 1,8,-1
 307.200195312 716.599609375 l 1,0,-1
EndSplineSet
EndChar

StartChar: equal
Encoding: 61 61 87
Width: 715
Flags: W
LayerCount: 2
Fore
SplineSet
614.400390625 307 m 1,0,-1
 614.400390625 204.599609375 l 1,1,-1
 0 204.599609375 l 1,2,-1
 0 307 l 1,3,-1
 614.400390625 307 l 1,0,-1
0 511.799804688 m 1,4,-1
 614.400390625 511.799804688 l 1,5,-1
 614.400390625 409.400390625 l 1,6,-1
 0 409.400390625 l 1,7,-1
 0 511.799804688 l 1,4,-1
EndSplineSet
EndChar

StartChar: greater
Encoding: 62 62 88
Width: 612
Flags: W
LayerCount: 2
Fore
SplineSet
204.799804688 716.599609375 m 1,0,-1
 512 409.400390625 l 1,1,-1
 512 307 l 1,2,-1
 204.799804688 -0.2001953125 l 1,3,-1
 0 -0.2001953125 l 1,4,-1
 0 51 l 1,5,-1
 300 359 l 1,6,-1
 0 666.400390625 l 1,7,-1
 0 716.599609375 l 1,8,-1
 204.799804688 716.599609375 l 1,0,-1
EndSplineSet
EndChar

StartChar: question
Encoding: 63 63 89
Width: 715
Flags: W
LayerCount: 2
Fore
SplineSet
409.599609375 204.599609375 m 1,0,-1
 204.799804688 204.599609375 l 1,1,2
 204.662956587 210.505531337 204.662956587 210.505531337 204.532962857 214.945270568 c 128,-1,3
 204.402969128 219.3850098 204.402969128 219.3850098 204.33463663 221.110713929 c 128,-1,4
 204.266304132 222.836418058 204.266304132 222.836418058 204.224948941 224.280628234 c 128,-1,5
 204.18359375 225.724838411 204.18359375 225.724838411 204.18359375 227.020507812 c 0,6,7
 204.18359375 257.958865543 204.18359375 257.958865543 207.655008839 273.056107391 c 128,-1,8
 211.126423928 288.153349239 211.126423928 288.153349239 223.435546875 307 c 0,9,10
 234.868531112 324.505183918 234.868531112 324.505183918 241.98201211 334.009876794 c 128,-1,11
 249.095493108 343.514569669 249.095493108 343.514569669 266.547935806 359.790253415 c 128,-1,12
 284.000378504 376.065937161 284.000378504 376.065937161 307.568359375 391.1015625 c 0,13,14
 319.316687283 398.596623607 319.316687283 398.596623607 331.559036503 406.245663438 c 128,-1,15
 343.801385722 413.894703269 343.801385722 413.894703269 347.242885372 416.008305312 c 128,-1,16
 350.684385022 418.121907356 350.684385022 418.121907356 356.754380253 422.466382188 c 128,-1,17
 362.824375483 426.81085702 362.824375483 426.81085702 366.834322872 430.268711562 c 128,-1,18
 370.844270261 433.726566105 370.844270261 433.726566105 379.6171875 441.4921875 c 0,19,20
 392.212840524 454.166632606 392.212840524 454.166632606 396.922513516 460.156005067 c 128,-1,21
 401.632186509 466.145377528 401.632186509 466.145377528 405.615897942 479.074138162 c 128,-1,22
 409.599609375 492.002898797 409.599609375 492.002898797 409.599609375 511.799804688 c 0,23,24
 409.707639908 532.028136149 409.707639908 532.028136149 408.979792011 542.693254323 c 128,-1,25
 408.251944114 553.358372498 408.251944114 553.358372498 403.069793926 569.380292552 c 128,-1,26
 397.887643739 585.402212606 397.887643739 585.402212606 387.654463886 593.483848073 c 128,-1,27
 377.421284033 601.565483541 377.421284033 601.565483541 357.102981426 607.882839427 c 128,-1,28
 336.784678819 614.200195312 336.784678819 614.200195312 307.200195312 614.200195312 c 128,-1,29
 277.602782118 614.200195312 277.602782118 614.200195312 257.17351585 608.012278274 c 128,-1,30
 236.744249581 601.824361235 236.744249581 601.824361235 226.3222029 593.354409226 c 128,-1,31
 215.900156219 584.884457218 215.900156219 584.884457218 210.728187725 569.509731399 c 128,-1,32
 205.55621923 554.13500558 205.55621923 554.13500558 204.8600779 542.563815476 c 128,-1,33
 204.16393657 530.992625373 204.16393657 530.992625373 204.799804688 511.799804688 c 1,34,-1
 0 511.799804688 l 1,35,36
 0 546.01161735 0 546.01161735 0.655345229325 559.162194788 c 128,-1,37
 1.31069045865 572.312772226 1.31069045865 572.312772226 5.72693321306 593.989202917 c 128,-1,38
 10.1431759675 615.665633608 10.1431759675 615.665633608 21.0093796532 631.55947262 c 128,-1,39
 31.8755833388 647.453311633 31.8755833388 647.453311633 51.2001953125 666.400390625 c 0,40,41
 69.4006018787 684.244974713 69.4006018787 684.244974713 97.2034450397 695.258460141 c 128,-1,42
 125.006288201 706.271945569 125.006288201 706.271945569 165.241836943 710.488060855 c 128,-1,43
 205.477385685 714.704176141 205.477385685 714.704176141 232.20960959 715.651892758 c 128,-1,44
 258.941833496 716.599609375 258.941833496 716.599609375 307.200195312 716.599609375 c 0,45,46
 359.303582764 716.599609375 359.303582764 716.599609375 384.748044168 715.780027748 c 128,-1,47
 410.192505572 714.960446122 410.192505572 714.960446122 451.092913473 710.81915438 c 128,-1,48
 491.993321374 706.677862639 491.993321374 706.677862639 518.672879373 695.637083413 c 128,-1,49
 545.352437373 684.596304186 545.352437373 684.596304186 563.200195312 666.400390625 c 0,50,51
 587.204023895 641.927739054 587.204023895 641.927739054 599.067933057 613.43118064 c 128,-1,52
 610.931842219 584.934622227 610.931842219 584.934622227 612.666116422 566.099743839 c 128,-1,53
 614.400390625 547.264865451 614.400390625 547.264865451 614.400390625 511.799804688 c 0,54,55
 614.400390625 467.879512001 614.400390625 467.879512001 582.025390625 427.715820312 c 0,56,57
 539.887656971 375.440702385 539.887656971 375.440702385 461.583984375 324.356445312 c 0,58,59
 453.626995128 317.551122424 453.626995128 317.551122424 446.334266368 311.450367924 c 128,-1,60
 439.041537609 305.349613423 439.041537609 305.349613423 437.190014882 303.913866451 c 128,-1,61
 435.338492155 302.478119479 435.338492155 302.478119479 431.958969493 299.213477299 c 128,-1,62
 428.579446832 295.948835119 428.579446832 295.948835119 426.834718007 293.922288326 c 128,-1,63
 425.089989181 291.895741534 425.089989181 291.895741534 419.625 285.506835938 c 0,64,65
 408.117456758 272.05339592 408.117456758 272.05339592 409.599609375 204.599609375 c 1,0,-1
204.799804688 -0.2001953125 m 1,66,-1
 204.799804688 102.200195312 l 1,67,-1
 409.599609375 102.200195312 l 1,68,-1
 409.599609375 -0.2001953125 l 1,69,-1
 204.799804688 -0.2001953125 l 1,66,-1
EndSplineSet
EndChar

StartChar: at
Encoding: 64 64 90
Width: 766
Flags: W
LayerCount: 2
Fore
SplineSet
0 460.599609375 m 2,0,1
 0 575.799874442 0 575.799874442 70.4000592912 646.199741909 c 128,-1,2
 140.800118582 716.599609375 140.800118582 716.599609375 256 716.599609375 c 2,3,-1
 409.599609375 716.599609375 l 2,4,5
 524.800048828 716.599609375 524.800048828 716.599609375 595.199829102 646.199829102 c 128,-1,6
 665.599609375 575.800048828 665.599609375 575.800048828 665.599609375 460.599609375 c 2,7,-1
 665.599609375 204.599609375 l 1,8,-1
 307.200195312 204.599609375 l 1,9,-1
 307.200195312 511.799804688 l 1,10,-1
 459.599609375 511.799804688 l 1,11,-1
 460.799804688 563 l 1,12,-1
 409.599609375 614.200195312 l 1,13,-1
 256 614.200195312 l 1,14,-1
 206 563 l 1,15,-1
 206 153.400390625 l 1,16,-1
 256 102.200195312 l 1,17,-1
 554.799804688 102.200195312 l 1,18,-1
 554.799804688 -0.2001953125 l 1,19,-1
 254.799804688 -0.2001953125 l 2,20,21
 140.996578342 -0.2001953125 140.996578342 -0.2001953125 70.498289171 68.938977668 c 128,-1,22
 0 138.078150649 0 138.078150649 0 254.799804688 c 2,23,-1
 0 460.599609375 l 2,0,1
EndSplineSet
EndChar

StartChar: bracketleft
Encoding: 91 91 91
Width: 510
Flags: W
LayerCount: 2
Fore
SplineSet
409.599609375 716.599609375 m 1,0,-1
 409.599609375 614.200195312 l 1,1,-1
 204.799804688 614.200195312 l 1,2,-1
 204.799804688 102.200195312 l 1,3,-1
 409.599609375 102.200195312 l 1,4,-1
 409.599609375 -0.2001953125 l 1,5,-1
 0 -0.2001953125 l 1,6,-1
 0 716.599609375 l 1,7,-1
 409.599609375 716.599609375 l 1,0,-1
EndSplineSet
EndChar

StartChar: backslash
Encoding: 92 92 92
Width: 817
Flags: W
LayerCount: 2
Fore
SplineSet
563.200195312 -0.2001953125 m 1,0,-1
 0 563 l 1,1,-1
 0 716.599609375 l 1,2,-1
 102.400390625 716.599609375 l 1,3,-1
 716.799804688 102.200195312 l 1,4,-1
 716.799804688 -0.2001953125 l 1,5,-1
 563.200195312 -0.2001953125 l 1,0,-1
EndSplineSet
EndChar

StartChar: bracketright
Encoding: 93 93 93
Width: 510
Flags: W
LayerCount: 2
Fore
SplineSet
0 716.599609375 m 1,0,-1
 409.599609375 716.599609375 l 1,1,-1
 409.599609375 -0.2001953125 l 1,2,-1
 0 -0.2001953125 l 1,3,-1
 0 102.200195312 l 1,4,-1
 204.799804688 102.200195312 l 1,5,-1
 204.799804688 614.200195312 l 1,6,-1
 0 614.200195312 l 1,7,-1
 0 716.599609375 l 1,0,-1
EndSplineSet
EndChar

StartChar: underscore
Encoding: 95 95 95
Width: 715
Flags: W
LayerCount: 2
Fore
SplineSet
0 -0.2001953125 m 1,0,-1
 614.400390625 -0.2001953125 l 1,1,-1
 614.400390625 -102.599609375 l 1,2,-1
 0 -102.599609375 l 1,3,-1
 0 -0.2001953125 l 1,0,-1
EndSplineSet
EndChar

StartChar: grave
Encoding: 96 96 96
Width: 408
Flags: W
LayerCount: 2
Fore
SplineSet
153.599609375 819 m 5,0,-1
 307.200195312 563 l 5,1,-1
 307.200195312 511.799804688 l 5,2,-1
 204.799804688 511.799804688 l 5,3,-1
 0 716.599609375 l 5,4,-1
 0 819 l 5,5,-1
 153.599609375 819 l 5,0,-1
EndSplineSet
EndChar

StartChar: uni0013
Encoding: 19 19 97
Width: 817
Flags: W
LayerCount: 2
Fore
SplineSet
0 716.599609375 m 1,0,-1
 716.799804688 716.599609375 l 1,1,-1
 716.799804688 -0.2001953125 l 1,2,-1
 0 -0.2001953125 l 1,3,-1
 0 716.599609375 l 1,0,-1
102.400390625 511.799804688 m 1,4,-1
 256 359 l 1,5,-1
 102.400390625 204.599609375 l 1,6,-1
 102.400390625 102.200195312 l 1,7,-1
 204.799804688 102.200195312 l 1,8,-1
 358.400390625 255.799804688 l 1,9,-1
 512 102.200195312 l 1,10,-1
 614.400390625 102.200195312 l 1,11,-1
 614.400390625 204.599609375 l 1,12,-1
 460.799804688 359 l 1,13,-1
 614.400390625 511.799804688 l 1,14,-1
 614.400390625 614.200195312 l 1,15,-1
 512 613.200195312 l 1,16,-1
 358.400390625 460.599609375 l 1,17,-1
 204.799804688 614.200195312 l 1,18,-1
 102.400390625 614.200195312 l 1,19,-1
 102.400390625 511.799804688 l 1,4,-1
EndSplineSet
EndChar

StartChar: uni0014
Encoding: 20 20 98
Width: 817
Flags: W
LayerCount: 2
Fore
SplineSet
0 716.599609375 m 1,0,-1
 716.799804688 716.599609375 l 1,1,-1
 716.799804688 -0.2001953125 l 1,2,-1
 0 -0.2001953125 l 1,3,-1
 0 716.599609375 l 1,0,-1
102.400390625 511.799804688 m 1,4,-1
 256 359 l 1,5,-1
 102.400390625 204.599609375 l 1,6,-1
 102.400390625 102.200195312 l 1,7,-1
 204.799804688 102.200195312 l 1,8,-1
 358.400390625 255.799804688 l 1,9,-1
 512 102.200195312 l 1,10,-1
 614.400390625 102.200195312 l 1,11,-1
 614.400390625 204.599609375 l 1,12,-1
 460.799804688 359 l 1,13,-1
 614.400390625 511.799804688 l 1,14,-1
 614.400390625 614.200195312 l 1,15,-1
 512 613.200195312 l 1,16,-1
 358.400390625 460.599609375 l 1,17,-1
 204.799804688 614.200195312 l 1,18,-1
 102.400390625 614.200195312 l 1,19,-1
 102.400390625 511.799804688 l 1,4,-1
EndSplineSet
EndChar

StartChar: uni0015
Encoding: 21 21 99
Width: 817
Flags: W
LayerCount: 2
Fore
SplineSet
0 716.599609375 m 1,0,-1
 716.799804688 716.599609375 l 1,1,-1
 716.799804688 -0.2001953125 l 1,2,-1
 0 -0.2001953125 l 1,3,-1
 0 716.599609375 l 1,0,-1
102.400390625 511.799804688 m 1,4,-1
 256 359 l 1,5,-1
 102.400390625 204.599609375 l 1,6,-1
 102.400390625 102.200195312 l 1,7,-1
 204.799804688 102.200195312 l 1,8,-1
 358.400390625 255.799804688 l 1,9,-1
 512 102.200195312 l 1,10,-1
 614.400390625 102.200195312 l 1,11,-1
 614.400390625 204.599609375 l 1,12,-1
 460.799804688 359 l 1,13,-1
 614.400390625 511.799804688 l 1,14,-1
 614.400390625 614.200195312 l 1,15,-1
 512 613.200195312 l 1,16,-1
 358.400390625 460.599609375 l 1,17,-1
 204.799804688 614.200195312 l 1,18,-1
 102.400390625 614.200195312 l 1,19,-1
 102.400390625 511.799804688 l 1,4,-1
EndSplineSet
EndChar
